<svg width="139" height="37" viewBox="0 0 139 37" fill="none" xmlns="http://www.w3.org/2000/svg">
<g style="mix-blend-mode:luminosity">
<g style="mix-blend-mode:multiply">
<path d="M41.5467 36.35C38.2467 36.35 35.2133 35.5833 32.4467 34.05C29.7133 32.5167 27.53 30.3833 25.8967 27.65C24.2967 24.8833 23.4967 21.7833 23.4967 18.35C23.4967 14.9167 24.2967 11.8333 25.8967 9.1C27.53 6.36667 29.7133 4.23333 32.4467 2.7C35.2133 1.16667 38.2467 0.399999 41.5467 0.399999C44.8467 0.399999 47.8633 1.16667 50.5967 2.7C53.3633 4.23333 55.53 6.36667 57.0967 9.1C58.6967 11.8333 59.4967 14.9167 59.4967 18.35C59.4967 21.7833 58.6967 24.8833 57.0967 27.65C55.4967 30.3833 53.33 32.5167 50.5967 34.05C47.8633 35.5833 44.8467 36.35 41.5467 36.35ZM41.5467 28.55C44.3467 28.55 46.58 27.6167 48.2467 25.75C49.9467 23.8833 50.7967 21.4167 50.7967 18.35C50.7967 15.25 49.9467 12.7833 48.2467 10.95C46.58 9.08333 44.3467 8.15 41.5467 8.15C38.7133 8.15 36.4467 9.06666 34.7467 10.9C33.08 12.7333 32.2467 15.2167 32.2467 18.35C32.2467 21.45 33.08 23.9333 34.7467 25.8C36.4467 27.6333 38.7133 28.55 41.5467 28.55Z" fill="#04BFAD"/>
</g>
<g style="mix-blend-mode:multiply">
<path d="M94.9008 0.899999V36H86.3508V14.95L78.5008 36H71.6008L63.7008 14.9V36H55.1508V0.899999H65.2508L75.1008 25.2L84.8508 0.899999H94.9008Z" fill="#04BFAD"/>
</g>
<path d="M17.2288 29.397C17.6217 29.7616 17.8908 30.228 18.0021 30.737C18.1133 31.2459 18.0618 31.7746 17.8539 32.2559C17.646 32.7372 17.2911 33.1495 16.8343 33.4405C16.3775 33.7314 15.8393 33.888 15.288 33.8903C14.5335 33.8964 13.8053 33.6293 13.2536 33.1441L0.842706 21.277C0.70651 21.277 0.663953 21.1486 0.621392 21.0283C0.579462 20.9944 0.533801 20.9648 0.485192 20.94C0.424115 20.8376 0.381003 20.7265 0.357514 20.6111C0.322682 20.5946 0.292303 20.5709 0.268697 20.5417C0.245091 20.5125 0.228879 20.4786 0.221314 20.4426C0.178753 20.3623 0.178748 20.2339 0.136186 20.1938C0.0936251 20.1537 0.0510715 20.0253 0.0510715 19.9852V19.6964C0.0510715 19.6081 0 19.568 0 19.4476C0 19.3273 0.0510715 19.2791 0.0510715 19.239V18.9421C0.0510715 18.8619 0.136186 18.8218 0.136186 18.7816C0.136186 18.7415 0.178753 18.573 0.221314 18.4447C0.263876 18.3163 0.272386 18.4447 0.272386 18.3644C0.332564 18.2336 0.403725 18.1075 0.485192 17.9873C0.485133 17.9761 0.487588 17.9649 0.492388 17.9546C0.497188 17.9443 0.504224 17.9351 0.513053 17.9275C0.521882 17.92 0.532297 17.9142 0.543628 17.9107C0.55496 17.9072 0.566955 17.9059 0.578828 17.9071C0.637535 17.7879 0.728559 17.6855 0.842706 17.6102L13.2536 5.75117C13.7889 5.26904 14.5008 5 15.2412 5C15.9816 5 16.6935 5.26904 17.2288 5.75117C17.4901 5.99709 17.6973 6.28914 17.8387 6.61062C17.9801 6.9321 18.0529 7.27669 18.0529 7.62471C18.0529 7.97272 17.9801 8.31732 17.8387 8.6388C17.6973 8.96027 17.4901 9.25232 17.2288 9.49824L6.75873 19.4476L17.2288 29.397Z" fill="#039987"/>
<path d="M101.194 30.6703L112.014 6.39868C112.272 5.8355 112.756 5.39177 113.361 5.16468C113.966 4.93759 114.641 4.94565 115.24 5.1871C115.819 5.42654 116.274 5.87246 116.505 6.42731C116.737 6.98216 116.725 7.60077 116.474 8.14784L105.655 32.4596C105.461 32.8703 105.145 33.2189 104.744 33.4626C104.343 33.7063 103.876 33.8345 103.399 33.8317C103.106 33.8343 102.815 33.7768 102.548 33.6632C102.246 33.5565 101.97 33.3931 101.736 33.1829C101.503 32.9727 101.317 32.7199 101.191 32.4401C101.064 32.1603 100.999 31.8591 101 31.5549C101.001 31.2507 101.067 30.9497 101.194 30.6703Z" fill="#039987"/>
<path d="M137.566 20.8999C137.566 20.8999 137.566 20.948 137.524 20.948C137.428 21.0503 137.326 21.1467 137.217 21.2369L124.806 33.1039C124.27 33.5859 123.556 33.8534 122.815 33.8501C122.076 33.8546 121.364 33.5869 120.831 33.1039C120.568 32.8591 120.359 32.5674 120.216 32.2458C120.073 31.9242 120 31.579 120 31.2304C120 30.8818 120.073 30.5367 120.216 30.215C120.359 29.8934 120.568 29.6017 120.831 29.3569L131.293 19.4075L120.831 9.49824C120.568 9.25341 120.359 8.96172 120.216 8.64009C120.073 8.31847 120 7.97332 120 7.62471C120 7.27609 120.073 6.93095 120.216 6.60933C120.359 6.2877 120.568 5.99601 120.831 5.75118C121.367 5.26905 122.078 5 122.819 5C123.559 5 124.271 5.26905 124.806 5.75118L137.217 17.6102C137.328 17.701 137.431 17.8003 137.524 17.9071C137.566 17.9071 137.566 17.9873 137.566 17.9873C137.647 18.1091 137.721 18.235 137.788 18.3644C137.788 18.3644 137.83 18.3644 137.83 18.4447C137.859 18.5752 137.905 18.7019 137.966 18.8218C137.966 18.8619 137.966 18.8619 137.966 18.9421V19.239C137.966 19.239 138.009 19.3995 138.009 19.4476C138.009 19.4958 137.966 19.6081 137.966 19.6562V19.929C137.966 19.929 137.966 19.929 137.966 20.0093C137.912 20.132 137.867 20.258 137.83 20.3864C137.83 20.3864 137.788 20.3864 137.788 20.5148C137.788 20.6432 137.668 20.7314 137.566 20.8999Z" fill="#039987"/>
</g>
</svg>
