<svg width="504" height="450" viewBox="0 0 504 450" fill="none" xmlns="http://www.w3.org/2000/svg">
<path d="M492.406 255.951H317.039V1.64288H492.406V255.951ZM321.757 251.291H487.689V6.30354H321.757V251.291Z" fill="#EBEBEB"/>
<path d="M407.017 7.52698H402.299V253.621H407.017V7.52698Z" fill="#EBEBEB"/>
<path d="M496.688 11.0691H312.758V17.559H496.688V11.0691Z" fill="#EBEBEB"/>
<path d="M496.688 18.363H312.758V24.8529H496.688V18.363Z" fill="#EBEBEB"/>
<path d="M496.688 25.6686H312.758V32.1585H496.688V25.6686Z" fill="#EBEBEB"/>
<path d="M496.688 32.9741H312.758V39.464H496.688V32.9741Z" fill="#EBEBEB"/>
<path d="M496.688 40.268H312.758V46.758H496.688V40.268Z" fill="#EBEBEB"/>
<path d="M496.688 47.5736H312.758V54.0636H496.688V47.5736Z" fill="#EBEBEB"/>
<path d="M496.688 54.8792H312.758V61.3691H496.688V54.8792Z" fill="#EBEBEB"/>
<path d="M496.688 62.1731H312.758V68.6631H496.688V62.1731Z" fill="#EBEBEB"/>
<path d="M496.688 69.4787H312.758V75.9687H496.688V69.4787Z" fill="#EBEBEB"/>
<path d="M482.676 9.75244H481.497V159.348H482.676V9.75244Z" fill="#263238"/>
<path d="M484.174 164.766H479.987L481.049 158.823H483.136L484.174 164.766Z" fill="#263238"/>
<path d="M486.922 9.75244H485.743V214.507H486.922V9.75244Z" fill="#263238"/>
<path d="M488.432 218.876H484.245L485.295 212.934H487.382L488.432 218.876Z" fill="#263238"/>
<path d="M504 0.734039H305.433V14.3082H504V0.734039Z" fill="#DBDBDB"/>
<path d="M29.7919 134.017C29.7919 133.038 29.9217 130.44 29.9217 129.356C29.9217 124.614 28.2115 122.482 23.7415 122.365C23.311 122.391 22.8796 122.33 22.474 122.185C22.0683 122.04 21.697 121.815 21.3828 121.523C21.0686 121.231 20.8182 120.879 20.6471 120.488C20.476 120.096 20.3877 119.675 20.3877 119.249C20.3877 118.823 20.476 118.401 20.6471 118.01C20.8182 117.619 21.0686 117.266 21.3828 116.974C21.697 116.682 22.0683 116.457 22.474 116.312C22.8796 116.167 23.311 116.106 23.7415 116.132C28.2115 115.945 29.9217 113.86 29.9217 109.059C29.9217 107.894 29.7919 105.354 29.7919 104.399C29.7919 98.1068 32.4928 94.0753 42.6829 91.8732C43.3821 91.6951 44.1236 91.7865 44.7569 92.1289C45.3903 92.4713 45.868 93.0389 46.0932 93.7166C46.3183 94.3943 46.274 95.1312 45.9692 95.7777C45.6644 96.4243 45.122 96.9321 44.4521 97.1979C38.0714 99.1438 37.1515 101.16 37.1515 105.575C37.1515 106.869 37.293 109.013 37.293 110.376C37.293 115.444 34.7926 117.915 30.4524 119.278C34.8516 120.699 37.293 123.111 37.293 128.168C37.293 129.543 37.1515 131.663 37.1515 132.98C37.1515 137.396 38.0714 139.412 44.4521 141.358C45.122 141.624 45.6644 142.131 45.9692 142.778C46.274 143.424 46.3183 144.161 46.0932 144.839C45.868 145.517 45.3903 146.084 44.7569 146.427C44.1236 146.769 43.3821 146.86 42.6829 146.682C32.481 144.41 29.7919 140.367 29.7919 134.017Z" fill="#EBEBEB"/>
<path d="M68.3001 104.329C68.3001 105.307 68.1704 107.906 68.1704 108.989C68.1704 113.79 69.9513 115.875 74.4213 116.062C74.8518 116.036 75.2832 116.097 75.6889 116.242C76.0945 116.387 76.4658 116.612 76.78 116.904C77.0942 117.196 77.3446 117.549 77.5157 117.94C77.6868 118.331 77.7751 118.753 77.7751 119.179C77.7751 119.605 77.6868 120.026 77.5157 120.418C77.3446 120.809 77.0942 121.161 76.78 121.453C76.4658 121.745 76.0945 121.971 75.6889 122.115C75.2832 122.26 74.8518 122.322 74.4213 122.296C69.9513 122.435 68.1704 124.626 68.1704 129.287C68.1704 130.393 68.3001 132.992 68.3001 133.947C68.3001 140.309 65.6111 144.34 55.4209 146.543C54.7179 146.727 53.9701 146.637 53.3326 146.291C52.695 145.945 52.2166 145.37 51.9967 144.685C51.7767 144.001 51.8321 143.258 52.1512 142.613C52.4703 141.967 53.0288 141.468 53.7107 141.218C60.0206 139.272 60.9406 137.256 60.9406 132.84C60.9406 131.535 60.8108 129.403 60.8108 128.028C60.8108 122.971 63.3112 120.501 67.6514 119.138C63.2404 117.705 60.8108 115.305 60.8108 110.236C60.8108 108.873 60.9406 106.741 60.9406 105.436C60.9406 101.02 60.0206 99.0039 53.7107 97.0581C53.0288 96.8083 52.4703 96.3088 52.1512 95.6632C51.8321 95.0175 51.7767 94.2753 51.9967 93.5904C52.2166 92.9055 52.695 92.3306 53.3326 91.9848C53.9701 91.639 54.7179 91.549 55.4209 91.7333C65.6111 94.0054 68.3001 98.0368 68.3001 104.329Z" fill="#EBEBEB"/>
<path d="M203.862 43.3674C204.406 43.8968 204.779 44.5741 204.933 45.3132C205.088 46.0523 205.016 46.82 204.728 47.519C204.44 48.2179 203.948 48.8166 203.315 49.2391C202.682 49.6616 201.937 49.889 201.173 49.8923C200.127 49.9011 199.119 49.5132 198.354 48.8087L181.158 31.5759C180.97 31.5759 180.911 31.3895 180.852 31.2147C180.793 31.1655 180.73 31.1225 180.663 31.0865C180.578 30.9377 180.518 30.7764 180.486 30.6088C180.438 30.585 180.396 30.5505 180.363 30.5081C180.33 30.4657 180.308 30.4164 180.297 30.3641C180.238 30.2476 180.238 30.0612 180.179 30.0029C180.12 29.9447 180.061 29.7582 180.061 29.7V29.2805C180.061 29.1524 179.991 29.0941 179.991 28.9193C179.991 28.7446 180.061 28.6746 180.061 28.6164V28.1853C180.061 28.0688 180.179 28.0105 180.179 27.9522C180.179 27.894 180.238 27.6493 180.297 27.4629C180.356 27.2765 180.368 27.4629 180.368 27.3464C180.451 27.1564 180.55 26.9732 180.663 26.7987C180.663 26.7824 180.666 26.7662 180.673 26.7513C180.679 26.7363 180.689 26.7229 180.701 26.7119C180.714 26.701 180.728 26.6926 180.744 26.6875C180.76 26.6824 180.776 26.6806 180.793 26.6822C180.874 26.5092 181 26.3605 181.158 26.2511L198.354 9.03C199.096 8.32987 200.082 7.93918 201.108 7.93918C202.134 7.93918 203.12 8.32987 203.862 9.03C204.224 9.38711 204.511 9.81121 204.707 10.278C204.903 10.7449 205.004 11.2453 205.004 11.7507C205.004 12.256 204.903 12.7564 204.707 13.2233C204.511 13.6901 204.224 14.1142 203.862 14.4713L189.355 28.9193L203.862 43.3674Z" fill="#EBEBEB"/>
<path d="M219.466 45.3015L234.456 10.0553C234.814 9.2375 235.485 8.59314 236.323 8.26337C237.161 7.9336 238.097 7.94531 238.926 8.29593C239.729 8.64363 240.359 9.29117 240.68 10.0969C241 10.9026 240.985 11.801 240.636 12.5954L225.646 47.8998C225.378 48.4962 224.939 49.0024 224.384 49.3562C223.829 49.7101 223.181 49.8964 222.521 49.8923C222.114 49.896 221.712 49.8125 221.341 49.6476C220.922 49.4927 220.54 49.2554 220.217 48.9501C219.893 48.6448 219.636 48.2778 219.461 47.8715C219.286 47.4651 219.196 47.0278 219.196 46.586C219.197 46.1442 219.289 45.7072 219.466 45.3015Z" fill="#EBEBEB"/>
<path d="M270.251 31.0866C270.251 31.0866 270.251 31.1565 270.192 31.1565C270.06 31.3049 269.918 31.445 269.768 31.5759L252.572 48.8087C251.828 49.5086 250.839 49.897 249.812 49.8923C248.788 49.8988 247.802 49.51 247.064 48.8087C246.699 48.4532 246.41 48.0296 246.212 47.5625C246.014 47.0955 245.912 46.5943 245.912 46.088C245.912 45.5818 246.014 45.0806 246.212 44.6136C246.41 44.1465 246.699 43.7229 247.064 43.3674L261.559 28.9194L247.064 14.5296C246.699 14.1741 246.41 13.7505 246.212 13.2834C246.014 12.8164 245.912 12.3152 245.912 11.8089C245.912 11.3027 246.014 10.8015 246.212 10.3345C246.41 9.86741 246.699 9.44382 247.064 9.08829C247.806 8.38817 248.792 7.99747 249.818 7.99747C250.844 7.99747 251.83 8.38817 252.572 9.08829L269.768 26.3094C269.921 26.4412 270.063 26.5854 270.192 26.7405C270.251 26.7405 270.251 26.857 270.251 26.857C270.364 27.0339 270.466 27.2167 270.558 27.4047C270.558 27.4047 270.617 27.4047 270.617 27.5212C270.657 27.7107 270.72 27.8947 270.806 28.0688C270.806 28.1271 270.806 28.1271 270.806 28.2436V28.6747C270.806 28.6747 270.865 28.9077 270.865 28.9776C270.865 29.0475 270.806 29.2107 270.806 29.2806V29.6767C270.806 29.6767 270.806 29.6767 270.806 29.7932C270.731 29.9714 270.668 30.1544 270.617 30.3409C270.617 30.3409 270.558 30.3409 270.558 30.5273C270.558 30.7137 270.393 30.8419 270.251 31.0866Z" fill="#EBEBEB"/>
<path d="M246.805 449.986C378.083 449.986 484.504 441.608 484.504 431.274C484.504 420.939 378.083 412.561 246.805 412.561C115.527 412.561 9.1051 420.939 9.1051 431.274C9.1051 441.608 115.527 449.986 246.805 449.986Z" fill="#EBEBEB"/>
<path d="M470.941 408.623H328.09L356.573 244.941H463.393L470.941 408.623Z" fill="#DBDBDB"/>
<path d="M470.941 408.623H458.416L451.386 244.941H463.393L470.941 408.623Z" fill="#A6A6A6"/>
<path d="M0 408.623L61.7071 408.343L123.402 408.238L246.805 408.04L370.207 408.238L431.902 408.343L493.609 408.623L431.902 408.914L370.207 409.007L246.805 409.205L123.402 409.007L61.7071 408.914L0 408.623Z" fill="#263238"/>
<path d="M134.1 0.734039H16.8892V74.6054H134.1V0.734039Z" fill="white"/>
<path d="M134.831 75.3278H16.1461V0H134.831V75.3278ZM17.6204 73.8714H133.357V1.46811H17.6204V73.8714Z" fill="#EBEBEB"/>
<path d="M134.1 0.734039H16.8892V14.7043H134.1V0.734039Z" fill="#038C7F"/>
<path d="M134.831 15.4384H16.1461V0H134.831V15.4384ZM17.6204 13.9703H133.357V1.46811H17.6204V13.9703Z" fill="#EBEBEB"/>
<path d="M30.1576 7.81821C30.1576 8.50956 29.95 9.18537 29.5612 9.7602C29.1725 10.335 28.6199 10.7831 27.9733 11.0476C27.3268 11.3122 26.6154 11.3814 25.929 11.2465C25.2427 11.1117 24.6122 10.7787 24.1174 10.2899C23.6226 9.80104 23.2856 9.17821 23.149 8.50015C23.0125 7.82209 23.0826 7.11926 23.3504 6.48054C23.6182 5.84183 24.0717 5.29591 24.6536 4.91182C25.2354 4.52773 25.9195 4.32272 26.6193 4.32272C27.5577 4.32272 28.4577 4.69099 29.1212 5.34653C29.7848 6.00206 30.1576 6.89115 30.1576 7.81821Z" fill="#A6A6A6"/>
<path d="M44.6879 7.81821C44.6879 8.50956 44.4804 9.18537 44.0917 9.7602C43.7029 10.335 43.1503 10.7831 42.5037 11.0476C41.8572 11.3122 41.1458 11.3814 40.4594 11.2465C39.7731 11.1117 39.1426 10.7787 38.6478 10.2899C38.153 9.80104 37.816 9.17821 37.6794 8.50015C37.5429 7.82209 37.613 7.11926 37.8808 6.48054C38.1486 5.84183 38.6021 5.29591 39.184 4.91182C39.7658 4.52773 40.4499 4.32272 41.1497 4.32272C42.0881 4.32272 42.9881 4.69099 43.6516 5.34653C44.3152 6.00206 44.6879 6.89115 44.6879 7.81821Z" fill="#EBEBEB"/>
<path d="M59.2774 7.81821C59.2774 8.50956 59.0699 9.18537 58.6811 9.7602C58.2923 10.335 57.7397 10.7831 57.0932 11.0476C56.4467 11.3122 55.7352 11.3814 55.0489 11.2465C54.3625 11.1117 53.7321 10.7787 53.2373 10.2899C52.7424 9.80104 52.4054 9.17821 52.2689 8.50015C52.1324 7.82209 52.2025 7.11926 52.4703 6.48054C52.7381 5.84183 53.1916 5.29591 53.7734 4.91182C54.3553 4.52773 55.0394 4.32272 55.7392 4.32272C56.6776 4.32272 57.5775 4.69099 58.2411 5.34653C58.9046 6.00206 59.2774 6.89115 59.2774 7.81821Z" fill="white"/>
<path d="M37.1161 42.3187C37.1963 38.5849 38.7534 35.0306 41.4539 32.4171C44.1544 29.8037 47.7836 28.339 51.5639 28.3368C54.8576 28.3172 58.0631 29.3878 60.669 31.3778C61.0512 31.7651 61.2784 32.2761 61.3085 32.8162C61.3387 33.3562 61.1698 33.8888 60.8331 34.3153C60.4963 34.7418 60.0146 35.0333 59.477 35.1359C58.9395 35.2385 58.3825 35.1452 57.9092 34.8733C56.1161 33.442 53.8687 32.6827 51.5639 32.7294C48.9335 32.7516 46.4077 33.7497 44.4874 35.5258C43.5756 36.4141 42.8501 37.4713 42.3522 38.6369C41.8544 39.8025 41.594 41.0536 41.5861 42.3187C41.5836 43.5798 41.837 44.8286 42.3313 45.9913C42.8256 47.154 43.5507 48.2071 44.4639 49.0883C46.3798 50.8726 48.9074 51.8756 51.5404 51.8964C53.8432 51.9312 56.0866 51.1732 57.8856 49.7525C58.3704 49.4236 58.9621 49.2854 59.5447 49.3652C60.1272 49.4449 60.6586 49.7368 61.0346 50.1836C61.373 50.6571 61.5206 51.2381 61.4487 51.8134C61.3767 52.3886 61.0903 52.9167 60.6454 53.2945C58.0395 55.2846 54.834 56.3552 51.5404 56.3356C47.7535 56.3422 44.1164 54.8748 41.4167 52.2513C38.717 49.6279 37.1719 46.0594 37.1161 42.3187Z" fill="#EBEBEB"/>
<path d="M67.8281 49.566C68.1733 49.1537 68.6695 48.8928 69.2086 48.8404C69.7477 48.7881 70.2859 48.9484 70.7058 49.2864C72.8198 51.0629 75.4603 52.1137 78.2305 52.2809C79.9801 52.3145 81.6976 51.814 83.1487 50.8477C83.6421 50.552 84.0548 50.1415 84.3509 49.6521C84.6469 49.1626 84.8172 48.6091 84.847 48.0397C84.8547 47.5989 84.7317 47.1656 84.4932 46.793C84.1899 46.3249 83.7875 45.9274 83.3138 45.6278C81.644 44.7009 79.8177 44.0811 77.9239 43.7985H77.8413C76.0931 43.506 74.3892 42.9971 72.7698 42.2838C71.2766 41.6453 70.0026 40.593 69.1018 39.2544C68.5027 38.2951 68.1881 37.189 68.1937 36.0618C68.2349 34.9374 68.5411 33.838 69.0877 32.851C69.6344 31.864 70.4065 31.0164 71.3427 30.3758C73.3393 29.0068 75.7178 28.286 78.1479 28.3135C81.265 28.4668 84.2604 29.5562 86.7341 31.4361C87.1754 31.732 87.481 32.1877 87.5847 32.7045C87.6885 33.2213 87.582 33.7577 87.2884 34.1975C87.1461 34.4199 86.9601 34.6118 86.7414 34.7619C86.5228 34.9121 86.2759 35.0174 86.0153 35.0717C85.7547 35.126 85.4858 35.1282 85.2244 35.0781C84.9629 35.028 84.7143 34.9267 84.4932 34.7801C82.4764 33.4518 80.554 32.2867 78.1479 32.2867C76.5751 32.2637 75.0338 32.7238 73.7369 33.6033C73.3087 33.8663 72.9504 34.2267 72.6918 34.6544C72.4333 35.082 72.2821 35.5646 72.2509 36.0618C72.2283 36.4434 72.3273 36.8223 72.5339 37.1454C72.8117 37.5533 73.1734 37.8987 73.5954 38.1591C75.1058 39.0419 76.7767 39.6238 78.5136 39.8719H78.5961C80.4689 40.195 82.2948 40.7428 84.0332 41.5031C85.6268 42.1931 86.9889 43.3165 87.9607 44.7423C88.5867 45.7308 88.9178 46.8737 88.916 48.0397C88.8775 49.2403 88.5492 50.4144 87.9583 51.4643C87.3675 52.5141 86.5313 53.4093 85.5193 54.0752C83.392 55.5556 80.844 56.3308 78.2423 56.289C74.5396 56.121 70.9959 54.7534 68.1583 52.3974C67.7424 52.0598 67.4755 51.5759 67.4139 51.0477C67.3523 50.5194 67.5008 49.9882 67.8281 49.566Z" fill="#EBEBEB"/>
<path d="M93.7046 49.566C94.0499 49.1536 94.5461 48.8928 95.0852 48.8404C95.6243 48.788 96.1625 48.9483 96.5824 49.2864C98.6906 51.0649 101.328 52.1162 104.095 52.2808C105.849 52.3146 107.57 51.8142 109.025 50.8477C109.516 50.5506 109.927 50.1395 110.221 49.6502C110.515 49.1608 110.683 48.608 110.712 48.0396C110.719 47.5989 110.596 47.1655 110.358 46.7929C110.056 46.3237 109.654 45.9259 109.179 45.6278C107.508 44.7027 105.682 44.083 103.789 43.7984H103.706C101.955 43.5043 100.247 42.9954 98.6228 42.2837C97.1328 41.645 95.8627 40.5926 94.9666 39.2543C94.3675 38.295 94.0529 37.1889 94.0585 36.0618C94.097 34.9368 94.4019 33.8364 94.9488 32.849C95.4957 31.8615 96.2693 31.0144 97.2075 30.3758C99.2073 29.0044 101.59 28.2835 104.025 28.3134C107.141 28.4711 110.135 29.5601 112.611 31.4361C113.05 31.7338 113.353 32.1902 113.455 32.7069C113.556 33.2236 113.448 33.759 113.153 34.1975C113.011 34.4198 112.825 34.6118 112.606 34.7619C112.388 34.912 112.141 35.0174 111.88 35.0717C111.62 35.126 111.351 35.1282 111.089 35.0781C110.828 35.028 110.579 34.9267 110.358 34.7801C108.353 33.4518 106.419 32.2866 104.025 32.2866C102.451 32.2613 100.909 32.7216 99.6135 33.6033C99.1831 33.8649 98.8224 34.2247 98.5618 34.6525C98.3012 35.0802 98.1482 35.5635 98.1156 36.0618C98.0956 36.4415 98.19 36.8186 98.3869 37.1454C98.6711 37.5478 99.0316 37.8921 99.4484 38.1591C100.963 39.0417 102.638 39.6235 104.378 39.8718H104.449C106.323 40.1915 108.149 40.7394 109.886 41.5031C111.483 42.1929 112.849 43.3161 113.825 44.7422C114.443 45.734 114.769 46.8754 114.769 48.0396C114.733 49.2394 114.407 50.4132 113.818 51.4632C113.229 52.5131 112.395 53.4087 111.384 54.0752C109.252 55.5543 106.7 56.3292 104.095 56.289C100.394 56.1158 96.8516 54.7488 94.0113 52.3973C93.6015 52.0549 93.3411 51.5696 93.2839 51.0424C93.2268 50.5151 93.3775 49.9864 93.7046 49.566Z" fill="#EBEBEB"/>
<path d="M327.689 212.071H210.479V285.943H327.689V212.071Z" fill="white"/>
<path d="M328.432 286.677H209.736V211.337H328.432V286.677ZM211.222 285.209H327.005V212.805H211.222V285.209Z" fill="#EBEBEB"/>
<path d="M327.689 212.071H210.479V226.042H327.689V212.071Z" fill="#038C7F"/>
<path d="M328.432 226.776H209.736V211.337H328.432V226.776ZM211.222 225.308H327.005V212.805H211.222V225.308Z" fill="#EBEBEB"/>
<path d="M223.759 219.156C223.759 219.847 223.551 220.523 223.163 221.098C222.774 221.672 222.221 222.12 221.575 222.385C220.928 222.649 220.217 222.719 219.53 222.584C218.844 222.449 218.214 222.116 217.719 221.627C217.224 221.138 216.887 220.516 216.75 219.837C216.614 219.159 216.684 218.457 216.952 217.818C217.22 217.179 217.673 216.633 218.255 216.249C218.837 215.865 219.521 215.66 220.221 215.66C221.159 215.66 222.059 216.028 222.723 216.684C223.386 217.339 223.759 218.228 223.759 219.156Z" fill="#A6A6A6"/>
<path d="M238.289 219.156C238.289 219.847 238.082 220.523 237.693 221.098C237.304 221.672 236.751 222.12 236.105 222.385C235.458 222.649 234.747 222.719 234.061 222.584C233.374 222.449 232.744 222.116 232.249 221.627C231.754 221.138 231.417 220.516 231.281 219.837C231.144 219.159 231.214 218.457 231.482 217.818C231.75 217.179 232.203 216.633 232.785 216.249C233.367 215.865 234.051 215.66 234.751 215.66C235.689 215.66 236.589 216.028 237.253 216.684C237.916 217.339 238.289 218.228 238.289 219.156Z" fill="#EBEBEB"/>
<path d="M252.82 219.156C252.82 219.847 252.612 220.523 252.223 221.098C251.834 221.672 251.282 222.12 250.635 222.385C249.989 222.649 249.277 222.719 248.591 222.584C247.905 222.449 247.274 222.116 246.779 221.627C246.285 221.138 245.948 220.516 245.811 219.837C245.675 219.159 245.745 218.457 246.012 217.818C246.28 217.179 246.734 216.633 247.316 216.249C247.897 215.865 248.582 215.66 249.281 215.66C250.22 215.66 251.12 216.028 251.783 216.684C252.447 217.339 252.82 218.228 252.82 219.156Z" fill="white"/>
<path d="M273.023 70.1428H77.5466V228.733H273.023V70.1428Z" fill="white"/>
<path d="M273.766 229.479H76.8035V69.4204H273.766V229.479ZM78.2895 228.011H272.28V70.8769H78.2895V228.011Z" fill="#EBEBEB"/>
<path d="M273.023 70.1428H77.5466V84.1131H273.023V70.1428Z" fill="#038C7F"/>
<path d="M273.766 84.8472H76.8035V69.4204H273.766V84.8472ZM78.2895 83.3791H272.28V70.8769H78.2895V83.3791Z" fill="#EBEBEB"/>
<path d="M90.815 77.2387C90.815 77.93 90.6075 78.6058 90.2187 79.1807C89.8299 79.7555 89.2773 80.2035 88.6308 80.4681C87.9843 80.7327 87.2729 80.8019 86.5865 80.667C85.9001 80.5321 85.2697 80.1992 84.7749 79.7104C84.28 79.2215 83.943 78.5987 83.8065 77.9206C83.67 77.2426 83.7401 76.5397 84.0079 75.901C84.2757 75.2623 84.7292 74.7164 85.311 74.3323C85.8929 73.9482 86.577 73.7432 87.2768 73.7432C88.2152 73.7432 89.1151 74.1115 89.7787 74.767C90.4422 75.4225 90.815 76.3116 90.815 77.2387Z" fill="#A6A6A6"/>
<path d="M105.345 77.2387C105.345 77.93 105.138 78.6058 104.749 79.1807C104.36 79.7555 103.808 80.2035 103.161 80.4681C102.515 80.7327 101.803 80.8019 101.117 80.667C100.43 80.5321 99.8 80.1992 99.3051 79.7104C98.8103 79.2215 98.4733 78.5987 98.3368 77.9206C98.2003 77.2426 98.2703 76.5397 98.5381 75.901C98.8059 75.2623 99.2594 74.7164 99.8413 74.3323C100.423 73.9482 101.107 73.7432 101.807 73.7432C102.745 73.7432 103.645 74.1115 104.309 74.767C104.973 75.4225 105.345 76.3116 105.345 77.2387Z" fill="#EBEBEB"/>
<path d="M119.888 77.2387C119.888 77.93 119.68 78.6058 119.291 79.1807C118.902 79.7555 118.35 80.2035 117.703 80.4681C117.057 80.7327 116.345 80.8019 115.659 80.667C114.973 80.5321 114.342 80.1992 113.847 79.7104C113.353 79.2215 113.016 78.5987 112.879 77.9206C112.742 77.2426 112.813 76.5397 113.08 75.901C113.348 75.2623 113.802 74.7164 114.384 74.3323C114.965 73.9482 115.649 73.7432 116.349 73.7432C117.288 73.7432 118.188 74.1115 118.851 74.767C119.515 75.4225 119.888 76.3116 119.888 77.2387Z" fill="white"/>
<path d="M100.274 111.902H92.7139V114.629H100.274V111.902Z" fill="#EBEBEB"/>
<path d="M192.504 111.902H105.782V114.629H192.504V111.902Z" fill="#EBEBEB"/>
<path d="M211.505 111.902H197.151V114.629H211.505V111.902Z" fill="#038C7F"/>
<path d="M244.351 148.407H229.986V151.133H244.351V148.407Z" fill="#EBEBEB"/>
<path d="M239.457 111.902H214.63V114.629H239.457V111.902Z" fill="#A6A6A6"/>
<path d="M107.834 119.208H100.274V121.934H107.834V119.208Z" fill="#EBEBEB"/>
<path d="M170.06 119.208H113.153V121.934H170.06V119.208Z" fill="#A6A6A6"/>
<path d="M226.578 148.407H193.259V151.133H226.578V148.407Z" fill="#A6A6A6"/>
<path d="M160.141 141.113H105.782V143.839H160.141V141.113Z" fill="#A6A6A6"/>
<path d="M151.284 126.502H113.153V129.228H151.284V126.502Z" fill="#038C7F"/>
<path d="M221.294 133.807H206.752V136.534H221.294V133.807Z" fill="#A6A6A6"/>
<path d="M216.411 126.502H155.518V129.228H216.411V126.502Z" fill="#A6A6A6"/>
<path d="M178.469 148.407H105.782V151.133H178.469V148.407Z" fill="#038C7F"/>
<path d="M252.419 119.208H213.026V121.934H252.419V119.208Z" fill="#038C7F"/>
<path d="M209.901 119.208H173.634V121.934H209.901V119.208Z" fill="#EBEBEB"/>
<path d="M243.75 126.502H219.277V129.228H243.75V126.502Z" fill="#EBEBEB"/>
<path d="M107.834 126.502H100.274V129.228H107.834V126.502Z" fill="#EBEBEB"/>
<path d="M100.274 133.807H92.7139V136.534H100.274V133.807Z" fill="#A6A6A6"/>
<path d="M150.458 133.807H105.782V136.534H150.458V133.807Z" fill="#EBEBEB"/>
<path d="M157.829 155.712H113.153V158.439H157.829V155.712Z" fill="#EBEBEB"/>
<path d="M230.434 163.018H196.467V165.744H230.434V163.018Z" fill="#038C7F"/>
<path d="M206.268 155.712H161.462V158.439H206.268V155.712Z" fill="#038C7F"/>
<path d="M192.563 163.018H153.56V165.744H192.563V163.018Z" fill="#EBEBEB"/>
<path d="M126.091 163.018H113.153V165.744H126.091V163.018Z" fill="#A6A6A6"/>
<path d="M211.505 141.113H163.219V143.839H211.505V141.113Z" fill="#EBEBEB"/>
<path d="M245.354 141.113H214.63V143.839H245.354V141.113Z" fill="#038C7F"/>
<path d="M203.225 133.807H154.999V136.534H203.225V133.807Z" fill="#038C7F"/>
<path d="M100.274 141.113H92.7139V143.839H100.274V141.113Z" fill="#EBEBEB"/>
<path d="M100.274 148.407H92.7139V151.133H100.274V148.407Z" fill="#EBEBEB"/>
<path d="M107.834 155.712H100.274V158.439H107.834V155.712Z" fill="#A6A6A6"/>
<path d="M107.834 163.018H100.274V165.744H107.834V163.018Z" fill="#EBEBEB"/>
<path d="M100.274 169.123H92.7139V171.85H100.274V169.123Z" fill="#EBEBEB"/>
<path d="M192.504 169.123H105.782V171.85H192.504V169.123Z" fill="#EBEBEB"/>
<path d="M107.834 176.429H100.274V179.156H107.834V176.429Z" fill="#EBEBEB"/>
<path d="M170.06 176.429H113.153V179.156H170.06V176.429Z" fill="#A6A6A6"/>
<path d="M160.141 198.334H105.782V201.061H160.141V198.334Z" fill="#A6A6A6"/>
<path d="M151.284 183.735H113.153V186.461H151.284V183.735Z" fill="#038C7F"/>
<path d="M216.411 183.735H155.518V186.461H216.411V183.735Z" fill="#A6A6A6"/>
<path d="M178.469 205.628H105.782V208.354H178.469V205.628Z" fill="#038C7F"/>
<path d="M252.419 176.429H213.026V179.156H252.419V176.429Z" fill="#038C7F"/>
<path d="M209.901 176.429H173.634V179.156H209.901V176.429Z" fill="#EBEBEB"/>
<path d="M243.75 183.735H219.277V186.461H243.75V183.735Z" fill="#EBEBEB"/>
<path d="M107.834 183.735H100.274V186.461H107.834V183.735Z" fill="#EBEBEB"/>
<path d="M100.274 191.029H92.7139V193.755H100.274V191.029Z" fill="#A6A6A6"/>
<path d="M150.458 191.029H105.782V193.755H150.458V191.029Z" fill="#EBEBEB"/>
<path d="M211.505 198.334H163.219V201.061H211.505V198.334Z" fill="#EBEBEB"/>
<path d="M203.225 191.029H154.999V193.755H203.225V191.029Z" fill="#038C7F"/>
<path d="M100.274 198.334H92.7139V201.061H100.274V198.334Z" fill="#EBEBEB"/>
<path d="M295.314 47.9116H215.467V77.1222H295.314V47.9116Z" fill="#455A64"/>
<path d="M226.99 68.5699V55.6133C226.99 55.3043 227.115 55.0079 227.336 54.7894C227.557 54.5709 227.857 54.4481 228.17 54.4481C228.331 54.4386 228.492 54.4616 228.643 54.5159C228.794 54.5702 228.933 54.6545 229.05 54.7636C229.167 54.8728 229.26 55.0045 229.324 55.1506C229.388 55.2967 229.42 55.4542 229.42 55.6133V60.8798H235.176V55.6133C235.176 55.3043 235.3 55.0079 235.521 54.7894C235.742 54.5709 236.042 54.4481 236.355 54.4481C236.516 54.4386 236.677 54.4616 236.828 54.5159C236.98 54.5702 237.118 54.6545 237.235 54.7636C237.352 54.8728 237.446 55.0045 237.509 55.1506C237.573 55.2967 237.606 55.4542 237.605 55.6133V68.5699C237.606 68.729 237.573 68.8864 237.509 69.0325C237.446 69.1787 237.352 69.3104 237.235 69.4195C237.118 69.5287 236.98 69.613 236.828 69.6673C236.677 69.7215 236.516 69.7446 236.355 69.735C236.042 69.735 235.742 69.6123 235.521 69.3938C235.3 69.1753 235.176 68.8789 235.176 68.5699V63.3034H229.42V68.5699C229.42 68.729 229.388 68.8864 229.324 69.0325C229.26 69.1787 229.167 69.3104 229.05 69.4195C228.933 69.5287 228.794 69.613 228.643 69.6673C228.492 69.7215 228.331 69.7446 228.17 69.735C227.857 69.735 227.557 69.6123 227.336 69.3938C227.115 69.1753 226.99 68.8789 226.99 68.5699Z" fill="white"/>
<path d="M252.253 56.8483H248.715V68.5698C248.715 68.8912 248.586 69.1994 248.356 69.4267C248.126 69.6539 247.814 69.7816 247.489 69.7816C247.163 69.7816 246.851 69.6539 246.621 69.4267C246.391 69.1994 246.262 68.8912 246.262 68.5698V56.8483H242.724C242.563 56.8486 242.403 56.8163 242.255 56.7534C242.108 56.6905 241.974 56.5984 241.864 56.4827C241.753 56.367 241.668 56.2301 241.613 56.0806C241.558 55.9311 241.535 55.772 241.544 55.6132C241.544 55.3042 241.669 55.0078 241.89 54.7893C242.111 54.5708 242.411 54.4481 242.724 54.4481H252.159C252.472 54.4481 252.772 54.5708 252.993 54.7893C253.214 55.0078 253.339 55.3042 253.339 55.6132C253.341 55.9144 253.232 56.2061 253.033 56.4336C252.833 56.661 252.556 56.8085 252.253 56.8483Z" fill="white"/>
<path d="M270.523 55.6133V68.5699C270.502 68.8842 270.361 69.179 270.129 69.3952C269.898 69.6114 269.591 69.7328 269.273 69.735C268.96 69.735 268.66 69.6123 268.439 69.3938C268.217 69.1752 268.093 68.8789 268.093 68.5699V59.3301L264.885 63.7228C264.774 63.8804 264.626 64.0086 264.453 64.096C264.281 64.1834 264.089 64.2273 263.894 64.2238C263.696 64.2252 263.499 64.1806 263.321 64.0936C263.143 64.0066 262.988 63.8796 262.868 63.7228L259.696 59.3301V68.5699C259.696 68.8928 259.566 69.2025 259.335 69.4308C259.104 69.6592 258.79 69.7875 258.463 69.7875C258.136 69.7875 257.823 69.6592 257.592 69.4308C257.361 69.2025 257.231 68.8928 257.231 68.5699V55.6133C257.231 55.3042 257.355 55.0079 257.576 54.7894C257.797 54.5708 258.097 54.4481 258.41 54.4481H258.481C258.673 54.4465 258.863 54.4913 259.033 54.5786C259.204 54.666 259.35 54.7931 259.46 54.9491L263.883 61.008L268.305 54.9491C268.417 54.7898 268.567 54.6606 268.742 54.5731C268.917 54.4856 269.112 54.4426 269.308 54.4481C269.621 54.459 269.918 54.5842 270.142 54.7995C270.367 55.0148 270.502 55.3048 270.523 55.6133Z" fill="white"/>
<path d="M275.901 68.5699V55.6132C275.901 55.3042 276.025 55.0079 276.246 54.7893C276.467 54.5708 276.767 54.4481 277.08 54.4481C277.24 54.4402 277.4 54.4645 277.55 54.5195C277.7 54.5745 277.837 54.6591 277.953 54.7681C278.068 54.877 278.161 55.0082 278.223 55.1535C278.286 55.2988 278.319 55.4552 278.319 55.6132V67.3348H284.345C284.674 67.3348 284.989 67.4637 285.221 67.6931C285.453 67.9226 285.584 68.2337 285.584 68.5582C285.584 68.8827 285.453 69.1939 285.221 69.4233C284.989 69.6527 284.674 69.7816 284.345 69.7816H277.08C276.921 69.7818 276.764 69.7501 276.618 69.6887C276.471 69.6272 276.339 69.5372 276.229 69.424C276.119 69.3109 276.033 69.1769 275.977 69.0301C275.92 68.8833 275.894 68.7267 275.901 68.5699Z" fill="white"/>
<path d="M275.901 157.588L280.89 169.496L275.901 171.535L270.888 159.546L262.644 165.861V132.316L286.421 156.039L275.901 157.588Z" fill="#263238"/>
<path d="M262.644 128.716C262.435 128.176 262.331 127.603 262.338 127.026C262.324 126.448 262.429 125.874 262.644 125.337C262.856 125.875 262.956 126.449 262.939 127.026C262.95 127.603 262.849 128.176 262.644 128.716Z" fill="#263238"/>
<path d="M259.696 129.881C259.167 129.643 258.687 129.312 258.28 128.902C257.855 128.505 257.518 128.025 257.29 127.492C257.821 127.729 258.302 128.065 258.705 128.483C259.13 128.876 259.467 129.352 259.696 129.881Z" fill="#263238"/>
<path d="M258.481 132.759C257.381 133.162 256.172 133.162 255.072 132.759C256.175 132.37 257.379 132.37 258.481 132.759Z" fill="#263238"/>
<path d="M259.696 135.707C259.467 136.235 259.13 136.712 258.705 137.105C258.302 137.522 257.821 137.858 257.29 138.095C257.518 137.563 257.855 137.083 258.28 136.685C258.687 136.276 259.167 135.944 259.696 135.707Z" fill="#263238"/>
<path d="M266.855 132.759C267.961 132.37 269.169 132.37 270.275 132.759C269.172 133.163 267.958 133.163 266.855 132.759Z" fill="#263238"/>
<path d="M265.581 129.881C265.818 129.357 266.154 128.882 266.572 128.483C266.976 128.063 267.462 127.726 267.999 127.492C267.498 128.528 266.641 129.354 265.581 129.823V129.881Z" fill="#263238"/>
<path d="M267.287 267.651C267.632 267.238 268.129 266.977 268.668 266.925C269.207 266.873 269.745 267.033 270.165 267.371C272.273 269.149 274.911 270.201 277.678 270.365C279.431 270.399 281.153 269.899 282.608 268.932C283.099 268.635 283.51 268.224 283.803 267.735C284.097 267.245 284.266 266.692 284.294 266.124C284.302 265.683 284.179 265.25 283.941 264.877C283.639 264.408 283.236 264.01 282.761 263.712C281.091 262.787 279.265 262.168 277.371 261.883H277.289C275.537 261.589 273.83 261.08 272.205 260.368C270.715 259.73 269.445 258.677 268.549 257.339C267.95 256.38 267.636 255.273 267.641 254.146C267.68 253.021 267.985 251.921 268.531 250.933C269.078 249.946 269.852 249.099 270.79 248.46C272.79 247.089 275.173 246.368 277.607 246.398C280.723 246.556 283.717 247.645 286.193 249.521C286.633 249.818 286.936 250.275 287.037 250.791C287.139 251.308 287.031 251.844 286.736 252.282C286.594 252.504 286.408 252.696 286.189 252.846C285.97 252.997 285.723 253.102 285.463 253.156C285.202 253.211 284.933 253.213 284.672 253.163C284.41 253.113 284.162 253.011 283.941 252.865C281.936 251.536 280.001 250.371 277.607 250.371C276.034 250.346 274.492 250.806 273.196 251.688C272.766 251.949 272.405 252.309 272.144 252.737C271.884 253.165 271.731 253.648 271.698 254.146C271.678 254.526 271.773 254.903 271.97 255.23C272.254 255.632 272.614 255.977 273.031 256.244C274.546 257.126 276.22 257.708 277.961 257.956H278.032C279.905 258.276 281.732 258.824 283.469 259.588C285.066 260.277 286.432 261.401 287.408 262.827C288.025 263.818 288.352 264.96 288.352 266.124C288.315 267.324 287.989 268.498 287.4 269.548C286.812 270.598 285.977 271.493 284.967 272.16C282.834 273.639 280.283 274.414 277.678 274.374C273.976 274.2 270.434 272.833 267.594 270.482C267.184 270.139 266.924 269.654 266.867 269.127C266.809 268.6 266.96 268.071 267.287 267.651Z" fill="#EBEBEB"/>
<path d="M352.209 272.52C343.116 311.646 324.705 361.177 310.493 371.174C299.029 379.237 238.844 393.429 235.494 393.79C227.179 394.617 210.726 336.639 219.383 334.285C230.246 331.314 281.81 329.73 284.747 326.758C287.683 323.787 306.554 298.538 327.807 269.444C342.455 249.345 357.847 248.25 352.209 272.52Z" fill="#DD6A57"/>
<path d="M242.146 390.609C241.155 391.099 227.108 398.078 218.416 400.571C211.941 402.424 193.129 407.271 190.358 400.432C188.459 395.771 199.168 391.623 206.681 388.524C210.644 386.904 215.526 382.803 214.359 380.298C212.318 375.893 202.128 380.298 195.429 384.154C182.456 391.6 165.201 404.987 157.287 398.486C154.303 396.039 157.77 391.565 162.854 387.184C154.598 392.287 145.811 396.505 142.379 393.883C140.421 392.404 140.327 390.388 141.424 388.058C138.876 388.873 136.624 388.71 135.055 387.079C132.378 384.306 133.675 380.216 136.612 376.021C136.109 375.966 135.626 375.794 135.204 375.518C134.781 375.243 134.431 374.872 134.182 374.437C128.497 365.885 156.909 341.335 166.746 339.039C195.653 332.246 226.401 334.728 226.401 334.728C237.758 343.688 242.17 390.586 242.146 390.609Z" fill="#DD6A57"/>
<path d="M199.628 364.312C192.745 365.37 186.171 367.869 180.345 371.64C173.009 376.429 168.149 382.022 162.005 387.65C161.982 387.682 161.971 387.72 161.973 387.759C161.975 387.798 161.99 387.835 162.016 387.864C162.042 387.893 162.076 387.913 162.115 387.921C162.154 387.929 162.194 387.923 162.229 387.906C165.154 385.226 177.302 375.159 180.439 372.875C186.102 368.656 192.665 365.767 199.628 364.428C199.734 364.416 199.711 364.3 199.628 364.312Z" fill="#263238"/>
<path d="M194.25 352.194C186.654 354.245 178.917 356.319 171.841 359.872C164.116 363.752 158.077 370.091 152.145 376.185C148.575 379.843 145.092 383.583 141.695 387.405C141.554 387.557 141.766 387.813 141.919 387.65C147.942 381.358 154.158 375.245 160.566 369.31C166.472 363.774 173.426 359.442 181.029 356.563C185.381 354.932 189.839 353.627 194.297 352.322C194.356 352.299 194.332 352.171 194.25 352.194Z" fill="#263238"/>
<path d="M186.135 341.591C178.752 343.094 172.313 344.376 165.767 348.279C157.122 353.452 148.76 362.168 145.835 365.267C142.591 368.681 139.478 372.258 136.399 375.753C136.27 375.893 136.529 376.115 136.659 375.963C143.678 368.149 151.198 360.79 159.174 353.93C162.927 350.611 167.176 347.884 171.77 345.844C176.427 344.034 181.233 342.627 186.135 341.637C186.135 341.637 186.159 341.591 186.135 341.591Z" fill="#263238"/>
<path d="M285.183 321.049L340.616 318.719C340.616 318.719 350.688 291.559 354.391 267.452C358.094 243.344 337.301 251.99 316.721 277.938C296.14 303.886 285.183 321.049 285.183 321.049Z" fill="#038C7F"/>
<path d="M303.334 304.655C303.711 304.55 304.089 304.515 304.513 304.434C304.842 304.363 305.182 304.365 305.51 304.44C305.837 304.516 306.144 304.663 306.406 304.871C306.668 305.079 306.88 305.342 307.026 305.642C307.172 305.941 307.249 306.269 307.25 306.601C307.243 306.9 307.314 307.195 307.457 307.458C307.6 307.721 307.808 307.944 308.063 308.104C308.343 308.283 308.663 308.391 308.995 308.419C309.373 308.489 309.75 308.535 310.175 308.64C309.797 308.745 309.42 308.792 308.995 308.873C308.571 308.957 308.131 308.912 307.733 308.745C307.315 308.565 306.959 308.268 306.707 307.892C306.456 307.516 306.321 307.075 306.318 306.624C306.315 306.329 306.234 306.039 306.083 305.783C305.932 305.528 305.716 305.316 305.457 305.168C305.17 305.001 304.846 304.905 304.513 304.888C304.089 304.818 303.711 304.772 303.334 304.655ZM342.337 271.378C342.674 271.403 343.001 271.502 343.293 271.669C343.55 271.819 343.765 272.032 343.916 272.287C344.066 272.542 344.148 272.831 344.154 273.126C344.157 273.577 344.292 274.017 344.543 274.393C344.794 274.77 345.151 275.066 345.569 275.247C345.968 275.411 346.408 275.451 346.831 275.363C347.208 275.293 347.586 275.247 348.01 275.142C347.633 275.037 347.255 274.99 346.831 274.92C346.498 274.895 346.178 274.786 345.899 274.606C345.646 274.443 345.439 274.22 345.297 273.957C345.155 273.695 345.082 273.401 345.085 273.103C345.07 272.65 344.921 272.212 344.657 271.841C344.393 271.471 344.025 271.184 343.599 271.017C343.194 270.877 342.758 270.849 342.337 270.935C341.96 271.005 341.582 271.052 341.217 271.157C341.594 271.262 341.972 271.308 342.337 271.378ZM343.753 292.736C343.498 292.954 343.195 293.11 342.868 293.19C342.581 293.267 342.28 293.268 341.992 293.195C341.705 293.121 341.442 292.975 341.229 292.771C340.905 292.451 340.494 292.231 340.046 292.137C339.597 292.044 339.132 292.082 338.705 292.246C338.307 292.415 337.967 292.694 337.726 293.05C337.513 293.365 337.278 293.656 337.089 293.994C337.431 293.808 337.726 293.575 338.044 293.365C338.302 293.157 338.605 293.01 338.929 292.934C339.224 292.872 339.531 292.886 339.82 292.973C340.109 293.061 340.37 293.22 340.58 293.435C340.82 293.676 341.113 293.861 341.435 293.975C341.758 294.088 342.103 294.128 342.444 294.091C342.784 294.054 343.112 293.941 343.402 293.761C343.692 293.581 343.937 293.338 344.118 293.05C344.331 292.736 344.566 292.433 344.755 292.095C344.378 292.293 344.083 292.526 343.764 292.736H343.753ZM328.68 267.824C328.422 268.041 328.12 268.2 327.795 268.291C327.505 268.362 327.202 268.36 326.913 268.285C326.625 268.209 326.36 268.063 326.144 267.859L325.849 267.603C325.625 267.824 325.413 268.046 325.2 268.279C325.313 268.347 325.416 268.429 325.507 268.524C325.842 268.834 326.261 269.042 326.714 269.121C327.166 269.199 327.632 269.146 328.055 268.966C328.442 268.784 328.769 268.498 328.998 268.139C329.21 267.824 329.446 267.533 329.635 267.195C329.364 267.37 329.01 267.615 328.691 267.824H328.68ZM322.417 288.343C322.394 288.674 322.298 288.997 322.134 289.287C321.981 289.54 321.765 289.751 321.507 289.899C321.25 290.048 320.958 290.13 320.66 290.137C320.201 290.138 319.753 290.271 319.37 290.519C318.986 290.767 318.685 291.12 318.501 291.535C318.342 291.927 318.301 292.356 318.383 292.771C318.466 293.143 318.501 293.516 318.607 293.936C318.714 293.563 318.761 293.19 318.843 292.771C318.875 292.445 318.98 292.131 319.15 291.85C319.315 291.602 319.541 291.399 319.807 291.26C320.073 291.122 320.371 291.052 320.671 291.058C321.132 291.044 321.578 290.898 321.955 290.638C322.332 290.377 322.624 290.012 322.794 289.59C322.931 289.188 322.96 288.759 322.877 288.343C322.794 287.97 322.747 287.597 322.641 287.178C322.535 287.597 322.499 287.97 322.417 288.343ZM338.292 309.211C338.275 309.543 338.178 309.867 338.009 310.155C337.857 310.409 337.642 310.621 337.384 310.77C337.126 310.919 336.833 311 336.535 311.005C336.079 311.007 335.635 311.139 335.254 311.385C334.873 311.631 334.572 311.981 334.388 312.392C334.219 312.785 334.174 313.22 334.258 313.639C334.341 314.011 334.388 314.384 334.494 314.804C334.6 314.431 334.648 314.058 334.718 313.639C334.749 313.311 334.858 312.996 335.037 312.718C335.2 312.468 335.426 312.264 335.693 312.126C335.959 311.987 336.257 311.918 336.558 311.926C337.016 311.91 337.46 311.763 337.835 311.502C338.21 311.242 338.5 310.879 338.669 310.458C338.811 310.057 338.84 309.626 338.752 309.211C338.681 308.838 338.634 308.465 338.528 308.046C338.422 308.465 338.374 308.838 338.292 309.211Z" fill="white"/>
<path d="M342.538 306.834C330.543 306.531 318.513 307.055 306.519 307.813C303.122 308.038 299.733 308.333 296.352 308.698C296.258 308.698 296.246 308.85 296.352 308.85C302.343 308.85 308.335 308.652 314.326 308.477C320.318 308.302 326.356 308.058 332.36 307.72C335.756 307.522 339.141 307.323 342.526 307.055C342.679 307.044 342.691 306.834 342.538 306.834Z" fill="#263238"/>
<path d="M300.74 408.623H442.269C443.826 405.803 420.615 283.286 372.873 248.786C362.258 241.142 343.493 246.059 338.269 253.505C312.038 290.906 300.74 408.623 300.74 408.623Z" fill="#038C7F"/>
<path d="M360.783 304.655C361.161 304.55 361.538 304.515 361.963 304.434C362.291 304.363 362.632 304.365 362.959 304.44C363.287 304.516 363.593 304.663 363.856 304.871C364.118 305.079 364.33 305.342 364.476 305.642C364.622 305.941 364.698 306.269 364.699 306.601C364.692 306.9 364.764 307.195 364.906 307.458C365.049 307.721 365.258 307.944 365.513 308.104C365.794 308.281 366.113 308.389 366.445 308.419C366.822 308.489 367.2 308.535 367.624 308.64C367.247 308.745 366.869 308.792 366.445 308.873C366.021 308.956 365.581 308.912 365.183 308.745C364.764 308.565 364.408 308.268 364.157 307.892C363.906 307.515 363.77 307.075 363.767 306.624C363.764 306.329 363.683 306.039 363.532 305.783C363.382 305.528 363.166 305.316 362.906 305.168C362.62 305 362.296 304.903 361.963 304.888C361.538 304.818 361.208 304.772 360.783 304.655ZM382.78 378.608C383.113 378.632 383.435 378.732 383.723 378.899C383.981 379.045 384.197 379.255 384.348 379.509C384.499 379.762 384.58 380.05 384.584 380.344C384.585 380.797 384.719 381.24 384.97 381.619C385.222 381.997 385.579 382.295 385.999 382.476C386.4 382.634 386.838 382.675 387.261 382.593C387.639 382.523 388.016 382.476 388.441 382.372C388.063 382.267 387.686 382.22 387.261 382.139C386.93 382.118 386.609 382.014 386.33 381.836C386.077 381.673 385.87 381.45 385.728 381.187C385.585 380.924 385.513 380.631 385.516 380.333C385.509 379.878 385.364 379.435 385.099 379.063C384.834 378.691 384.461 378.406 384.03 378.247C383.63 378.1 383.195 378.072 382.78 378.165C382.402 378.235 382.025 378.282 381.6 378.387C382.025 378.503 382.438 378.55 382.78 378.62V378.608ZM408.727 308.873C409.06 308.89 409.383 308.986 409.67 309.153C409.93 309.301 410.145 309.513 410.296 309.768C410.447 310.024 410.528 310.313 410.531 310.609C410.534 311.06 410.67 311.5 410.921 311.877C411.172 312.253 411.528 312.549 411.947 312.73C412.345 312.897 412.784 312.942 413.209 312.858C413.586 312.776 413.963 312.73 414.388 312.625C414.011 312.52 413.633 312.473 413.209 312.404C412.877 312.376 412.556 312.268 412.277 312.089C412.022 311.929 411.813 311.706 411.67 311.443C411.528 311.18 411.456 310.884 411.463 310.586C411.462 310.254 411.386 309.926 411.24 309.626C411.094 309.327 410.882 309.064 410.619 308.856C410.357 308.648 410.051 308.501 409.723 308.425C409.396 308.35 409.055 308.347 408.727 308.419C408.349 308.5 407.972 308.535 407.547 308.64C407.996 308.757 408.385 308.803 408.75 308.885L408.727 308.873ZM342.337 271.378C342.674 271.403 343.001 271.502 343.293 271.669C343.55 271.819 343.765 272.032 343.916 272.287C344.067 272.542 344.148 272.831 344.154 273.126C344.157 273.577 344.292 274.017 344.543 274.393C344.794 274.77 345.151 275.066 345.569 275.247C345.968 275.411 346.408 275.451 346.831 275.363C347.208 275.293 347.586 275.247 348.01 275.142C347.633 275.037 347.256 274.99 346.831 274.92C346.499 274.895 346.178 274.786 345.899 274.606C345.647 274.443 345.439 274.22 345.297 273.957C345.155 273.694 345.082 273.401 345.085 273.103C345.07 272.65 344.921 272.212 344.657 271.841C344.393 271.471 344.025 271.184 343.599 271.017C343.194 270.877 342.758 270.849 342.337 270.935C341.96 271.005 341.583 271.052 341.217 271.157C341.594 271.262 341.972 271.308 342.337 271.378ZM383.204 270.539C383.54 270.562 383.866 270.657 384.159 270.819C384.416 270.97 384.629 271.183 384.78 271.438C384.93 271.692 385.013 271.981 385.02 272.275C385.021 272.728 385.155 273.171 385.407 273.55C385.658 273.928 386.016 274.226 386.436 274.408C386.836 274.566 387.275 274.606 387.698 274.524C388.063 274.443 388.441 274.396 388.818 274.303C388.441 274.198 388.063 274.151 387.698 274.07C387.364 274.04 387.042 273.936 386.754 273.767C386.503 273.603 386.298 273.38 386.157 273.117C386.017 272.854 385.947 272.561 385.952 272.264C385.939 271.809 385.791 271.368 385.527 270.995C385.263 270.623 384.894 270.335 384.466 270.166C384.061 270.026 383.625 269.998 383.204 270.085C382.827 270.166 382.449 270.213 382.025 270.318C382.438 270.411 382.839 270.458 383.216 270.539H383.204ZM332.312 335.788C332.648 335.811 332.974 335.906 333.268 336.068C333.522 336.22 333.734 336.433 333.883 336.688C334.031 336.943 334.112 337.231 334.117 337.524C334.118 337.977 334.252 338.42 334.503 338.799C334.754 339.177 335.112 339.476 335.532 339.657C335.933 339.815 336.371 339.855 336.794 339.773C337.172 339.703 337.549 339.657 337.974 339.552C337.596 339.447 337.219 339.4 336.794 339.319C336.464 339.293 336.144 339.189 335.862 339.016C335.61 338.853 335.403 338.63 335.26 338.367C335.118 338.105 335.045 337.811 335.049 337.513C335.044 337.057 334.899 336.614 334.634 336.242C334.368 335.869 333.995 335.585 333.563 335.427C333.163 335.28 332.728 335.251 332.312 335.346C331.935 335.416 331.558 335.462 331.133 335.567C331.569 335.625 331.947 335.672 332.324 335.742L332.312 335.788ZM376.871 403.368C377.206 403.389 377.533 403.484 377.826 403.647C378.082 403.799 378.296 404.012 378.446 404.266C378.597 404.521 378.68 404.809 378.687 405.104C378.695 405.546 378.83 405.977 379.076 406.347C379.323 406.716 379.67 407.008 380.079 407.19C380.479 407.348 380.917 407.388 381.341 407.306C381.718 407.225 382.096 407.178 382.52 407.073C382.143 406.968 381.765 406.933 381.341 406.852C381.008 406.826 380.688 406.718 380.409 406.537C380.156 406.378 379.948 406.157 379.805 405.896C379.663 405.635 379.591 405.342 379.595 405.046C379.594 404.712 379.518 404.383 379.371 404.082C379.224 403.781 379.012 403.517 378.748 403.308C378.485 403.099 378.177 402.951 377.848 402.874C377.519 402.798 377.177 402.796 376.847 402.867C376.47 402.948 376.104 402.995 375.668 403.1C376.139 403.17 376.54 403.216 376.883 403.298L376.871 403.368ZM354.934 367.073C355.27 367.09 355.597 367.186 355.889 367.353C356.147 367.501 356.361 367.714 356.51 367.969C356.659 368.225 356.737 368.514 356.738 368.809C356.741 369.26 356.876 369.7 357.128 370.077C357.379 370.453 357.735 370.749 358.153 370.93C358.552 371.096 358.991 371.141 359.415 371.058C359.793 370.976 360.17 370.93 360.595 370.825C360.217 370.72 359.84 370.673 359.415 370.603C359.084 370.573 358.764 370.466 358.484 370.289C358.219 370.127 358.003 369.898 357.86 369.625C357.717 369.352 357.651 369.046 357.67 368.739C357.667 368.406 357.589 368.078 357.442 367.779C357.295 367.48 357.081 367.217 356.818 367.009C356.555 366.801 356.248 366.655 355.92 366.579C355.592 366.503 355.251 366.501 354.922 366.572C354.544 366.642 354.167 366.688 353.742 366.793C354.191 366.875 354.568 366.922 354.945 367.003L354.934 367.073ZM304.69 404.277C304.359 404.247 304.039 404.139 303.759 403.962C303.503 403.803 303.295 403.58 303.154 403.317C303.013 403.053 302.945 402.757 302.957 402.459C302.94 402.034 302.806 401.621 302.569 401.266C302.332 400.91 302.001 400.626 301.612 400.443C301.612 400.746 301.541 401.026 301.518 401.306C301.676 401.457 301.801 401.638 301.886 401.838C301.971 402.038 302.015 402.253 302.013 402.471C302.016 402.922 302.151 403.362 302.403 403.738C302.654 404.115 303.01 404.411 303.428 404.591C303.827 404.758 304.266 404.803 304.69 404.719C305.068 404.638 305.445 404.591 305.87 404.486C305.457 404.323 305.08 404.277 304.702 404.207L304.69 404.277ZM314.338 373.668C314.674 373.685 315.002 373.781 315.293 373.947C315.551 374.097 315.766 374.31 315.916 374.565C316.067 374.82 316.149 375.109 316.154 375.404C316.157 375.855 316.293 376.295 316.544 376.671C316.795 377.048 317.151 377.344 317.57 377.525C317.968 377.692 318.408 377.737 318.832 377.653C319.209 377.571 319.575 377.525 319.952 377.42C319.575 377.315 319.209 377.268 318.832 377.198C318.499 377.173 318.179 377.064 317.9 376.884C317.643 376.725 317.433 376.503 317.29 376.239C317.148 375.976 317.077 375.68 317.086 375.381C317.07 374.928 316.921 374.49 316.658 374.119C316.394 373.749 316.026 373.462 315.6 373.295C315.195 373.155 314.758 373.127 314.338 373.213C313.961 373.295 313.583 373.33 313.159 373.435C313.595 373.47 314.031 373.516 314.35 373.598L314.338 373.668ZM373.616 336.697C373.952 336.723 374.278 336.823 374.571 336.988C374.829 337.138 375.043 337.351 375.194 337.606C375.345 337.861 375.427 338.15 375.432 338.445C375.435 338.896 375.57 339.336 375.821 339.712C376.073 340.089 376.429 340.385 376.847 340.566C377.242 340.729 377.678 340.769 378.097 340.682C378.475 340.612 378.852 340.566 379.277 340.461C378.899 340.356 378.522 340.309 378.097 340.239C377.766 340.209 377.446 340.101 377.166 339.925C376.914 339.761 376.709 339.538 376.569 339.275C376.428 339.012 376.358 338.719 376.364 338.422C376.348 337.969 376.199 337.531 375.935 337.16C375.671 336.79 375.304 336.503 374.877 336.336C374.472 336.196 374.036 336.168 373.616 336.254C373.238 336.324 372.861 336.371 372.436 336.476C372.872 336.511 373.25 336.557 373.627 336.627L373.616 336.697ZM425.51 386.403C425.842 386.425 426.164 386.521 426.453 386.683C426.711 386.832 426.926 387.045 427.076 387.3C427.227 387.555 427.309 387.844 427.314 388.139C427.315 388.592 427.449 389.035 427.701 389.413C427.952 389.792 428.31 390.09 428.73 390.271C429.13 390.429 429.568 390.47 429.992 390.388C430.369 390.306 430.746 390.26 431.171 390.155C430.794 390.05 430.416 390.015 429.992 389.934C429.66 389.906 429.34 389.798 429.06 389.619C428.807 389.46 428.599 389.239 428.456 388.978C428.314 388.717 428.241 388.424 428.246 388.128C428.247 387.794 428.172 387.465 428.027 387.164C427.881 386.863 427.67 386.599 427.407 386.39C427.144 386.18 426.838 386.032 426.509 385.956C426.181 385.88 425.839 385.877 425.51 385.949C425.132 386.03 424.755 386.077 424.33 386.182C424.79 386.217 425.168 386.217 425.545 386.333L425.51 386.403ZM404.894 356.109C405.229 356.13 405.556 356.225 405.849 356.388C406.105 356.54 406.319 356.753 406.469 357.007C406.62 357.262 406.702 357.55 406.71 357.845C406.711 358.298 406.845 358.741 407.096 359.119C407.348 359.498 407.705 359.796 408.125 359.977C408.526 360.135 408.964 360.176 409.387 360.094C409.765 360.012 410.142 359.977 410.567 359.872C410.189 359.767 409.812 359.721 409.387 359.639C409.056 359.617 408.735 359.513 408.455 359.336C408.203 359.174 407.996 358.951 407.853 358.688C407.711 358.425 407.638 358.131 407.642 357.833C407.626 357.381 407.477 356.942 407.213 356.572C406.949 356.201 406.582 355.915 406.156 355.748C405.751 355.604 405.315 355.571 404.894 355.654C404.516 355.736 404.151 355.783 403.773 355.887C404.186 355.922 404.552 355.922 404.929 355.992L404.894 356.109ZM343.729 292.852C343.475 293.07 343.172 293.226 342.845 293.307C342.558 293.383 342.256 293.385 341.969 293.311C341.681 293.238 341.418 293.092 341.205 292.887C340.881 292.567 340.47 292.347 340.022 292.254C339.574 292.161 339.108 292.199 338.681 292.363C338.283 292.532 337.943 292.811 337.702 293.167C337.49 293.481 337.254 293.773 337.065 294.111C337.407 293.924 337.702 293.691 338.021 293.481C338.279 293.273 338.581 293.126 338.905 293.05C339.201 292.988 339.508 293.002 339.796 293.09C340.085 293.177 340.347 293.336 340.556 293.551C340.797 293.793 341.089 293.977 341.412 294.091C341.735 294.205 342.079 294.245 342.42 294.208C342.761 294.171 343.089 294.058 343.379 293.877C343.669 293.697 343.914 293.454 344.095 293.167C344.307 292.852 344.543 292.549 344.732 292.211C344.378 292.293 344.083 292.526 343.764 292.736L343.729 292.852ZM404.752 336.115C404.501 336.334 404.202 336.493 403.879 336.581C403.59 336.652 403.286 336.65 402.998 336.575C402.709 336.5 402.444 336.353 402.228 336.15C401.904 335.834 401.495 335.617 401.049 335.526C400.603 335.435 400.14 335.474 399.716 335.637C399.319 335.801 398.979 336.077 398.737 336.429C398.525 336.744 398.289 337.035 398.1 337.373C398.442 337.187 398.737 336.954 399.056 336.744C399.312 336.534 399.615 336.386 399.94 336.313C400.234 336.251 400.539 336.264 400.826 336.352C401.113 336.44 401.372 336.599 401.579 336.814C401.821 337.053 402.113 337.236 402.436 337.349C402.758 337.461 403.102 337.5 403.442 337.463C403.782 337.426 404.109 337.314 404.4 337.135C404.69 336.956 404.935 336.715 405.118 336.429C405.33 336.115 405.566 335.823 405.755 335.485C405.377 335.649 405.082 335.882 404.752 336.115ZM366.692 255.38C366.441 255.599 366.143 255.759 365.82 255.847C365.53 255.924 365.225 255.925 364.936 255.849C364.646 255.774 364.381 255.624 364.168 255.415C363.843 255.097 363.432 254.88 362.984 254.789C362.535 254.697 362.07 254.737 361.644 254.903C361.247 255.067 360.907 255.343 360.666 255.695C360.453 256.021 360.217 256.313 360.029 256.65C360.371 256.464 360.677 256.231 360.996 256.021C361.248 255.812 361.547 255.664 361.869 255.59C362.163 255.528 362.469 255.54 362.758 255.626C363.046 255.711 363.308 255.867 363.52 256.08C363.758 256.324 364.049 256.511 364.372 256.627C364.695 256.743 365.04 256.785 365.381 256.749C365.723 256.713 366.051 256.6 366.342 256.42C366.632 256.239 366.877 255.995 367.058 255.707C367.27 255.38 367.506 255.089 367.695 254.751C367.317 254.926 367.011 255.147 366.692 255.357V255.38ZM365.926 279.278C365.899 279.607 365.799 279.925 365.631 280.21C365.481 280.466 365.266 280.679 365.008 280.829C364.749 280.978 364.456 281.058 364.157 281.061C363.7 281.064 363.255 281.197 362.874 281.445C362.493 281.694 362.193 282.046 362.01 282.459C361.846 282.853 361.801 283.286 361.88 283.706C361.963 284.078 362.01 284.451 362.116 284.871C362.222 284.498 362.27 284.125 362.34 283.706C362.368 283.378 362.478 283.061 362.659 282.785C362.823 282.535 363.049 282.331 363.315 282.19C363.581 282.05 363.879 281.978 364.18 281.981C364.517 281.98 364.848 281.905 365.151 281.761C365.454 281.616 365.721 281.407 365.931 281.148C366.142 280.888 366.291 280.586 366.367 280.262C366.444 279.939 366.446 279.603 366.374 279.278C366.303 278.905 366.256 278.532 366.15 278.113C366.067 278.532 366.02 278.905 365.926 279.278ZM356.939 344.783C356.914 345.116 356.813 345.439 356.644 345.727C356.492 345.982 356.277 346.194 356.019 346.343C355.761 346.492 355.468 346.573 355.169 346.578C354.713 346.581 354.267 346.714 353.886 346.963C353.505 347.211 353.205 347.563 353.023 347.976C352.863 348.372 352.822 348.805 352.905 349.223C352.976 349.596 353.023 349.968 353.129 350.388C353.235 350.015 353.282 349.642 353.365 349.223C353.382 348.894 353.488 348.576 353.672 348.302C353.836 348.053 354.062 347.848 354.328 347.708C354.594 347.567 354.891 347.495 355.193 347.498C355.651 347.483 356.095 347.336 356.47 347.075C356.845 346.814 357.135 346.451 357.304 346.03C357.453 345.631 357.482 345.198 357.387 344.783C357.316 344.422 357.269 344.049 357.163 343.677C357.08 344.049 357.033 344.422 356.962 344.783H356.939ZM403.997 287.69H403.809C403.35 287.691 402.902 287.824 402.519 288.072C402.135 288.32 401.834 288.674 401.65 289.089C401.49 289.484 401.449 289.917 401.532 290.335C401.603 290.708 401.65 291.081 401.756 291.501C401.863 291.128 401.91 290.755 401.992 290.335C402.017 290.008 402.122 289.692 402.299 289.415C402.464 289.165 402.689 288.961 402.955 288.82C403.221 288.68 403.519 288.608 403.82 288.611C404.029 288.611 404.237 288.576 404.434 288.506L403.997 287.69ZM403.667 393.534C403.65 393.866 403.553 394.19 403.384 394.478C403.233 394.732 403.017 394.944 402.759 395.093C402.501 395.242 402.209 395.323 401.91 395.328C401.453 395.331 401.008 395.465 400.627 395.713C400.246 395.961 399.946 396.313 399.763 396.726C399.599 397.121 399.554 397.554 399.633 397.973C399.716 398.346 399.763 398.719 399.869 399.138C399.975 398.777 400.023 398.404 400.093 397.973C400.119 397.645 400.229 397.328 400.412 397.053C400.572 396.799 400.797 396.591 401.064 396.45C401.331 396.309 401.631 396.24 401.933 396.249C402.392 396.233 402.835 396.086 403.21 395.825C403.585 395.565 403.875 395.202 404.044 394.781C404.186 394.38 404.215 393.949 404.127 393.534C404.056 393.161 404.009 392.788 403.903 392.369C403.82 392.788 403.773 393.208 403.667 393.534ZM423.918 334.111C423.922 334.141 423.922 334.173 423.918 334.204C423.768 334.46 423.553 334.673 423.295 334.822C423.036 334.971 422.743 335.051 422.443 335.054C421.987 335.057 421.541 335.191 421.16 335.439C420.779 335.687 420.479 336.039 420.297 336.453C420.128 336.846 420.083 337.28 420.167 337.699C420.25 338.072 420.297 338.445 420.403 338.864C420.509 338.492 420.556 338.119 420.627 337.699C420.657 337.372 420.767 337.056 420.945 336.779C421.108 336.527 421.333 336.32 421.599 336.18C421.866 336.039 422.165 335.968 422.467 335.975C422.82 335.966 423.167 335.878 423.481 335.719C423.795 335.559 424.07 335.332 424.283 335.054L423.918 334.111ZM320.4 347.137C320.379 347.465 320.283 347.784 320.117 348.069C319.966 348.324 319.751 348.536 319.493 348.685C319.234 348.834 318.942 348.915 318.643 348.92C318.185 348.92 317.736 349.053 317.353 349.301C316.97 349.55 316.668 349.903 316.485 350.318C316.325 350.714 316.284 351.147 316.367 351.565C316.449 351.938 316.485 352.31 316.591 352.73C316.697 352.357 316.744 351.984 316.827 351.565C316.856 351.239 316.961 350.924 317.133 350.644C317.298 350.395 317.524 350.19 317.79 350.05C318.056 349.909 318.353 349.837 318.655 349.84C319.115 349.827 319.561 349.681 319.939 349.42C320.316 349.159 320.607 348.795 320.778 348.372C320.915 347.975 320.943 347.549 320.86 347.137C320.778 346.764 320.73 346.391 320.624 345.972C320.518 346.391 320.483 346.764 320.4 347.137ZM322.889 288.425L322.287 290.37C322.512 290.15 322.685 289.884 322.794 289.59C322.926 289.216 322.958 288.815 322.889 288.425ZM344.118 250.126C344.094 250.458 343.993 250.781 343.823 251.069C343.672 251.324 343.457 251.536 343.199 251.685C342.941 251.834 342.648 251.915 342.349 251.92C341.893 251.923 341.447 252.057 341.066 252.305C340.685 252.553 340.385 252.905 340.203 253.318C340.039 253.713 339.994 254.146 340.073 254.565C340.155 254.938 340.203 255.311 340.309 255.73C340.415 255.357 340.462 254.984 340.533 254.565C340.559 254.236 340.668 253.92 340.851 253.644C341.016 253.395 341.242 253.19 341.508 253.05C341.774 252.909 342.071 252.837 342.373 252.84C342.831 252.825 343.275 252.678 343.65 252.417C344.025 252.156 344.315 251.793 344.484 251.372C344.626 250.972 344.654 250.541 344.567 250.126C344.496 249.764 344.449 249.392 344.342 249.019C344.248 249.392 344.201 249.764 344.13 250.126H344.118ZM338.28 309.211C338.263 309.543 338.166 309.867 337.997 310.155C337.846 310.409 337.631 310.621 337.372 310.77C337.114 310.919 336.822 311 336.523 311.005C336.068 311.007 335.623 311.139 335.242 311.385C334.861 311.631 334.561 311.981 334.376 312.392C334.208 312.785 334.162 313.22 334.247 313.639C334.329 314.011 334.376 314.384 334.482 314.804C334.589 314.431 334.636 314.058 334.707 313.639C334.737 313.311 334.846 312.996 335.025 312.718C335.189 312.468 335.415 312.264 335.681 312.126C335.947 311.987 336.245 311.918 336.546 311.926C337.005 311.91 337.448 311.763 337.823 311.502C338.198 311.242 338.488 310.879 338.658 310.458C338.8 310.057 338.828 309.626 338.74 309.211C338.669 308.838 338.622 308.465 338.516 308.046C338.422 308.465 338.375 308.838 338.292 309.211H338.28ZM390.611 317.157C390.59 317.485 390.493 317.804 390.328 318.09C390.176 318.344 389.961 318.556 389.703 318.705C389.445 318.854 389.152 318.935 388.854 318.94C388.395 318.941 387.947 319.073 387.564 319.322C387.18 319.57 386.879 319.923 386.695 320.338C386.535 320.734 386.494 321.167 386.577 321.585C386.66 321.958 386.695 322.331 386.801 322.75C386.908 322.377 386.955 322.004 387.037 321.585C387.069 321.26 387.174 320.945 387.344 320.665C387.509 320.415 387.734 320.21 388 320.07C388.266 319.929 388.564 319.857 388.865 319.861C389.326 319.847 389.772 319.701 390.149 319.44C390.526 319.179 390.818 318.815 390.988 318.393C391.125 317.995 391.154 317.569 391.071 317.157C390.988 316.785 390.941 316.412 390.835 315.992C390.693 316.412 390.693 316.785 390.623 317.157H390.611ZM342.255 383.502C342.23 383.831 342.13 384.15 341.96 384.434C341.81 384.69 341.596 384.903 341.337 385.052C341.079 385.202 340.785 385.282 340.486 385.285C340.029 385.287 339.584 385.421 339.203 385.669C338.822 385.917 338.522 386.269 338.339 386.683C338.174 387.077 338.133 387.512 338.221 387.929C338.292 388.302 338.339 388.675 338.445 389.095C338.551 388.722 338.599 388.349 338.669 387.929C338.7 387.602 338.809 387.286 338.988 387.009C339.153 386.759 339.378 386.555 339.644 386.414C339.91 386.274 340.208 386.202 340.509 386.205C340.846 386.204 341.178 386.129 341.481 385.984C341.784 385.84 342.05 385.631 342.26 385.372C342.471 385.112 342.62 384.81 342.696 384.486C342.773 384.163 342.775 383.826 342.703 383.502C342.632 383.129 342.585 382.756 342.479 382.337C342.337 382.721 342.337 383.129 342.267 383.502H342.255ZM382.839 296.651C383.09 296.431 383.388 296.272 383.711 296.184C384.001 296.113 384.304 296.115 384.593 296.19C384.882 296.266 385.146 296.412 385.363 296.616C385.685 296.933 386.094 297.152 386.54 297.245C386.986 297.338 387.449 297.302 387.875 297.14C388.273 296.971 388.613 296.692 388.854 296.336C389.066 296.021 389.302 295.73 389.49 295.392C389.148 295.579 388.854 295.812 388.535 296.021C388.278 296.231 387.975 296.379 387.651 296.452C387.357 296.514 387.052 296.501 386.765 296.413C386.478 296.325 386.218 296.166 386.011 295.951C385.77 295.712 385.477 295.529 385.155 295.417C384.832 295.304 384.488 295.265 384.148 295.302C383.808 295.339 383.481 295.451 383.191 295.63C382.901 295.809 382.656 296.05 382.473 296.336C382.261 296.651 382.025 296.942 381.836 297.28C382.225 297.093 382.52 296.86 382.85 296.651H382.839ZM352.303 323.962C352.558 323.744 352.861 323.588 353.188 323.508C353.477 323.431 353.78 323.429 354.069 323.503C354.359 323.576 354.624 323.723 354.839 323.927C355.162 324.245 355.571 324.463 356.017 324.556C356.463 324.649 356.926 324.613 357.351 324.451C357.749 324.282 358.09 324.003 358.33 323.647C358.543 323.333 358.778 323.041 358.967 322.704C358.625 322.89 358.33 323.123 358.012 323.333C357.755 323.543 357.452 323.69 357.127 323.764C356.832 323.825 356.525 323.81 356.237 323.723C355.948 323.635 355.686 323.477 355.476 323.263C355.236 323.021 354.944 322.837 354.621 322.723C354.298 322.609 353.953 322.569 353.612 322.606C353.272 322.643 352.944 322.756 352.654 322.937C352.364 323.117 352.119 323.36 351.938 323.647C351.726 323.962 351.49 324.265 351.301 324.603C351.702 324.463 351.997 324.172 352.315 323.962H352.303ZM331.628 364.207C331.883 363.992 332.18 363.833 332.501 363.741C332.791 363.669 333.094 363.671 333.383 363.746C333.672 363.822 333.936 363.968 334.152 364.172C334.477 364.49 334.889 364.708 335.337 364.799C335.785 364.89 336.251 364.85 336.676 364.684C337.074 364.52 337.414 364.245 337.655 363.892C337.867 363.578 338.103 363.275 338.292 362.937C337.95 363.135 337.655 363.356 337.325 363.566C337.078 363.784 336.777 363.933 336.452 363.997C336.158 364.064 335.851 364.053 335.561 363.968C335.272 363.882 335.01 363.723 334.801 363.508C334.466 363.197 334.047 362.989 333.594 362.91C333.142 362.832 332.676 362.885 332.253 363.065C331.866 363.247 331.539 363.534 331.31 363.892C331.098 364.207 330.862 364.498 330.673 364.836C331.027 364.649 331.322 364.416 331.64 364.207H331.628ZM340.58 406.024C340.832 405.809 341.13 405.653 341.453 405.57C341.741 405.493 342.045 405.492 342.334 405.565C342.624 405.639 342.889 405.785 343.104 405.989C343.428 406.309 343.839 406.529 344.287 406.623C344.735 406.716 345.201 406.678 345.628 406.514C346.026 406.345 346.366 406.066 346.607 405.71C346.819 405.395 347.055 405.104 347.244 404.766C346.902 404.952 346.607 405.185 346.277 405.395C346.024 405.605 345.725 405.752 345.404 405.826C345.108 405.889 344.801 405.876 344.512 405.788C344.223 405.701 343.962 405.541 343.753 405.325C343.513 405.084 343.22 404.899 342.897 404.785C342.574 404.672 342.23 404.632 341.889 404.669C341.548 404.706 341.221 404.819 340.931 404.999C340.641 405.179 340.396 405.422 340.214 405.71C340.002 406.024 339.766 406.327 339.578 406.654C339.979 406.456 340.262 406.222 340.58 406.024ZM380.598 360.082C380.849 359.863 381.147 359.703 381.47 359.616C381.76 359.544 382.063 359.546 382.352 359.622C382.641 359.697 382.906 359.843 383.122 360.047C383.447 360.365 383.858 360.583 384.306 360.674C384.755 360.765 385.22 360.725 385.646 360.56C386.04 360.395 386.376 360.119 386.613 359.767C386.825 359.453 387.061 359.15 387.261 358.812C386.919 359.01 386.613 359.231 386.294 359.441C386.043 359.66 385.738 359.809 385.41 359.872C385.117 359.939 384.812 359.929 384.524 359.843C384.236 359.757 383.977 359.599 383.77 359.383C383.435 359.072 383.016 358.864 382.563 358.786C382.111 358.707 381.645 358.761 381.223 358.94C380.83 359.119 380.498 359.406 380.267 359.767C380.055 360.082 379.831 360.373 379.631 360.711C379.973 360.513 380.279 360.28 380.598 360.07V360.082ZM408.137 376.732C408.391 376.517 408.689 376.359 409.01 376.266C409.299 376.194 409.603 376.196 409.892 376.272C410.18 376.347 410.445 376.494 410.661 376.697C410.986 377.015 411.398 377.233 411.846 377.324C412.294 377.415 412.759 377.375 413.185 377.21C413.582 377.045 413.922 376.77 414.164 376.418C414.376 376.103 414.612 375.812 414.801 375.474C414.459 375.66 414.164 375.893 413.834 376.103C413.581 376.312 413.282 376.46 412.961 376.534C412.665 376.597 412.358 376.584 412.069 376.496C411.78 376.409 411.519 376.249 411.31 376.033C411.07 375.791 410.777 375.607 410.454 375.493C410.131 375.379 409.787 375.339 409.446 375.377C409.105 375.414 408.778 375.526 408.488 375.707C408.197 375.887 407.953 376.13 407.771 376.418C407.559 376.732 407.323 377.023 407.135 377.361C407.512 377.163 407.819 376.895 408.137 376.721V376.732ZM361.81 389.363C362.062 389.146 362.36 388.987 362.682 388.896C362.972 388.825 363.275 388.827 363.564 388.902C363.853 388.978 364.117 389.124 364.334 389.328C364.659 389.646 365.07 389.864 365.518 389.955C365.966 390.046 366.432 390.006 366.857 389.84C367.255 389.676 367.595 389.4 367.836 389.048C368.049 388.733 368.273 388.43 368.473 388.093C368.131 388.291 367.825 388.524 367.506 388.733C367.251 388.945 366.947 389.093 366.622 389.165C366.328 389.226 366.023 389.213 365.736 389.125C365.449 389.037 365.189 388.878 364.982 388.663C364.647 388.353 364.228 388.145 363.775 388.066C363.323 387.988 362.857 388.041 362.435 388.221C362.05 388.407 361.724 388.693 361.491 389.048C361.279 389.363 361.043 389.654 360.842 389.992C361.208 389.805 361.491 389.572 361.81 389.363ZM421.559 406.024C421.811 405.809 422.109 405.653 422.432 405.57C422.72 405.493 423.024 405.492 423.313 405.565C423.602 405.639 423.867 405.785 424.083 405.989C424.407 406.309 424.818 406.529 425.266 406.623C425.714 406.716 426.18 406.678 426.607 406.514C427.005 406.345 427.345 406.066 427.586 405.71C427.798 405.395 428.034 405.104 428.223 404.766C427.88 404.952 427.586 405.185 427.255 405.395C427.003 405.605 426.704 405.752 426.383 405.826C426.087 405.888 425.78 405.874 425.491 405.787C425.203 405.699 424.941 405.54 424.731 405.325C424.491 405.084 424.199 404.899 423.876 404.785C423.553 404.672 423.208 404.632 422.868 404.669C422.527 404.706 422.199 404.819 421.909 404.999C421.619 405.179 421.374 405.422 421.193 405.71C420.981 406.024 420.745 406.327 420.556 406.654C420.946 406.456 421.24 406.222 421.559 406.024ZM432.174 360.769C431.892 360.687 431.636 360.535 431.431 360.327C431.19 360.085 430.898 359.9 430.575 359.787C430.252 359.673 429.908 359.633 429.567 359.67C429.226 359.707 428.898 359.82 428.608 360C428.318 360.181 428.073 360.424 427.892 360.711C427.68 361.026 427.444 361.317 427.255 361.655C427.597 361.469 427.892 361.236 428.211 361.026C428.465 360.811 428.762 360.652 429.083 360.56C429.373 360.488 429.676 360.49 429.965 360.565C430.254 360.641 430.519 360.787 430.735 360.991C431.169 361.423 431.758 361.67 432.374 361.678L432.174 360.769ZM319.126 395.13C319.381 394.915 319.678 394.757 319.999 394.664C320.289 394.592 320.592 394.594 320.881 394.67C321.17 394.745 321.434 394.891 321.65 395.095C321.974 395.415 322.385 395.635 322.833 395.728C323.282 395.821 323.748 395.784 324.174 395.62C324.573 395.451 324.913 395.171 325.153 394.816C325.366 394.501 325.601 394.21 325.79 393.872C325.448 394.058 325.153 394.291 324.823 394.501C324.57 394.71 324.271 394.858 323.95 394.932C323.655 394.994 323.348 394.98 323.059 394.893C322.77 394.805 322.509 394.646 322.299 394.431C322.059 394.189 321.767 394.005 321.444 393.891C321.121 393.777 320.776 393.737 320.435 393.774C320.095 393.811 319.767 393.924 319.477 394.105C319.187 394.285 318.942 394.528 318.761 394.816C318.549 395.13 318.313 395.433 318.124 395.759C318.56 395.538 318.855 395.328 319.174 395.119L319.126 395.13ZM315.718 324.929C315.966 324.706 316.266 324.546 316.591 324.463C316.88 324.386 317.185 324.385 317.475 324.46C317.765 324.536 318.029 324.686 318.242 324.894C318.567 325.212 318.979 325.43 319.427 325.521C319.875 325.612 320.34 325.572 320.766 325.407C321.16 325.242 321.496 324.967 321.733 324.614C321.945 324.288 322.181 323.997 322.382 323.659C322.04 323.845 321.733 324.078 321.415 324.288C321.165 324.509 320.859 324.658 320.53 324.719C320.237 324.784 319.933 324.773 319.645 324.687C319.358 324.601 319.098 324.444 318.891 324.23C318.556 323.919 318.136 323.712 317.684 323.633C317.231 323.554 316.765 323.608 316.343 323.787C315.953 323.965 315.622 324.248 315.388 324.603C315.175 324.929 314.951 325.22 314.751 325.558C315.14 325.36 315.447 325.127 315.765 324.917L315.718 324.929Z" fill="white"/>
<path d="M323.231 286.094C321.933 290.755 320.675 295.415 319.457 300.076C319.61 298.037 319.834 296.01 320.105 293.982C320.105 293.866 319.94 293.808 319.905 293.982C319.402 296.497 319.122 299.051 319.067 301.614C317.605 307.246 316.237 312.897 314.963 318.567C312.545 329.438 310.387 340.402 308.594 351.39C307.592 357.6 306.813 363.834 305.74 370.033C305.74 370.149 305.905 370.196 305.929 370.033C306.908 364.545 308.217 359.092 309.467 353.639C310.717 348.186 311.826 342.803 313.005 337.385C315.293 326.467 317.723 315.584 319.987 304.679C321.273 298.526 322.464 292.363 323.75 286.222C323.758 286.189 323.76 286.154 323.755 286.119C323.75 286.085 323.738 286.052 323.72 286.022C323.683 285.962 323.624 285.919 323.555 285.902C323.486 285.885 323.413 285.896 323.353 285.932C323.292 285.968 323.248 286.026 323.231 286.094Z" fill="#263238"/>
<path d="M317.699 213.516C319.268 221.999 314.433 229.98 306.896 231.343C299.36 232.706 291.988 226.927 290.384 218.445C288.78 209.962 293.639 201.969 301.176 200.618C308.712 199.266 316.131 205.034 317.699 213.516Z" fill="#455A64"/>
<path d="M322.216 213.248C323.962 222.686 318.584 231.565 310.21 233.056C301.836 234.547 293.616 228.151 291.87 218.713C290.125 209.275 295.503 200.396 303.877 198.905C312.25 197.414 320.471 203.81 322.216 213.248Z" fill="#292929"/>
<path d="M346.123 279.849C354.662 279.849 365.525 264.282 368.532 253.05C368.733 252.281 359.238 225.867 357.918 220.426C357.646 219.26 325.495 236.948 325.495 236.948C325.495 236.948 331.676 247.516 333.94 256.988C334.152 257.839 337.867 279.884 346.123 279.849Z" fill="#DD6A57"/>
<path d="M337.914 259.051C336.799 259.357 335.659 259.563 334.506 259.668C334.364 259.004 334.247 258.445 334.164 258.014C334.168 257.995 334.168 257.975 334.164 257.956C334.17 257.905 334.17 257.854 334.164 257.804C334.164 257.641 334.105 257.466 334.058 257.291C334.063 257.257 334.063 257.221 334.058 257.187V257.047C333.536 254.93 332.89 252.845 332.124 250.801C330.622 246.845 328.865 242.989 326.863 239.255C326.698 238.944 326.545 238.664 326.403 238.416L325.649 237.041L326.498 236.563L327.677 235.946L328.432 235.538L329.364 235.025L330.225 234.559L330.39 234.466L331.569 233.86L331.829 233.72L332.949 233.114L333.539 232.8L335.355 231.821L336.747 231.075L337.926 230.446L341.96 228.302L343.257 227.603L347.916 225.179L348.918 224.667L349.414 224.259L350.204 223.851L351.902 223.001L352.94 222.488C353.447 222.232 353.919 222.01 354.367 221.8C354.591 221.684 354.816 221.591 355.016 221.498C355.629 221.206 356.195 220.973 356.596 220.798L356.879 220.682C357.28 229.91 356.49 254.134 337.914 259.051Z" fill="#263238"/>
<path d="M348.305 179.598C355.912 190.19 361.102 226.286 355.181 236.691C346.595 251.745 326.816 259.424 312.427 247.935C298.487 236.808 292.578 189.677 299.725 179.61C310.245 164.836 337.054 163.973 348.305 179.598Z" fill="#DD6A57"/>
<path d="M321.108 211.442C321.108 211.337 321.308 211.524 321.32 211.629C321.603 214.064 322.346 216.814 324.693 217.303C324.764 217.303 324.776 217.443 324.693 217.443C321.863 217.489 320.919 213.831 321.108 211.442Z" fill="#263238"/>
<path d="M322.865 208.611C326.781 207.749 328.255 215.602 324.623 216.348C320.99 217.093 319.587 209.345 322.865 208.611Z" fill="#263238"/>
<path d="M307.615 214.332C307.615 214.239 307.45 214.472 307.462 214.576C308.005 216.977 308.205 219.808 306.141 221.02C306.082 221.02 306.141 221.183 306.141 221.16C308.818 220.286 308.512 216.522 307.615 214.332Z" fill="#263238"/>
<path d="M304.962 212.211C300.975 212.642 302.131 220.484 305.834 220.088C309.538 219.692 308.299 211.85 304.962 212.211Z" fill="#263238"/>
<path d="M325.307 204.451C324.213 204.344 323.126 204.177 322.051 203.95C320.873 203.929 319.735 203.519 318.82 202.785C318.578 202.501 318.437 202.147 318.418 201.777C318.399 201.407 318.503 201.041 318.714 200.734C319.231 200.2 319.882 199.811 320.601 199.606C321.32 199.402 322.081 199.389 322.806 199.569C324.334 199.712 325.755 200.409 326.793 201.527C327.019 201.793 327.161 202.119 327.202 202.465C327.243 202.811 327.18 203.16 327.022 203.471C326.864 203.782 326.618 204.04 326.313 204.215C326.008 204.389 325.658 204.471 325.307 204.451Z" fill="#263238"/>
<path d="M301.164 208.844C302.182 208.438 303.178 207.979 304.148 207.469C305.267 207.121 306.24 206.422 306.919 205.477C307.073 205.138 307.109 204.759 307.021 204.399C306.934 204.038 306.728 203.717 306.436 203.484C305.791 203.109 305.056 202.911 304.307 202.911C303.558 202.911 302.823 203.109 302.178 203.484C300.743 204.033 299.571 205.099 298.899 206.467C298.762 206.785 298.722 207.137 298.784 207.477C298.845 207.818 299.006 208.134 299.246 208.386C299.486 208.638 299.795 208.815 300.136 208.897C300.477 208.978 300.834 208.96 301.164 208.844Z" fill="#263238"/>
<path d="M328.185 233.312C327.713 233.988 327.276 234.874 326.404 235.107C325.49 235.26 324.553 235.22 323.656 234.99C323.637 234.982 323.616 234.981 323.597 234.988C323.578 234.994 323.562 235.007 323.552 235.024C323.542 235.041 323.538 235.061 323.542 235.081C323.546 235.1 323.557 235.118 323.573 235.13C324.012 235.54 324.555 235.825 325.145 235.955C325.735 236.084 326.349 236.053 326.923 235.864C327.396 235.645 327.794 235.293 328.064 234.851C328.335 234.409 328.467 233.898 328.444 233.382C328.456 233.231 328.255 233.219 328.185 233.312Z" fill="#263238"/>
<path d="M324.257 226.589C323.814 227.656 323.152 228.62 322.314 229.422C321.476 230.224 320.479 230.847 319.386 231.25C318.438 231.62 317.441 231.851 316.426 231.937C316.229 231.954 316.032 231.954 315.836 231.937C315.655 231.949 315.474 231.949 315.293 231.937C315.158 231.938 315.026 231.895 314.918 231.815C314.809 231.735 314.73 231.623 314.692 231.495C314.685 231.413 314.685 231.331 314.692 231.25V231.04C314.291 229.188 313.937 226.38 313.937 226.38C313.312 226.846 310.104 229.048 309.974 228.069C308.936 219.913 307.78 210.895 308.488 202.587C308.5 202.535 308.529 202.489 308.571 202.457C308.613 202.424 308.665 202.406 308.718 202.406C308.772 202.406 308.823 202.424 308.865 202.457C308.907 202.489 308.936 202.535 308.948 202.587C310.257 210.37 310.127 218.317 311.366 226.147C312.502 225.342 313.749 224.703 315.069 224.247C315.352 224.247 315.647 229.782 315.895 230.597V230.691C319.126 230.504 321.332 229.118 324.009 226.449C324.139 226.216 324.363 226.345 324.257 226.589Z" fill="#263238"/>
<path d="M317.357 230.784C318.636 231.93 320.192 232.732 321.875 233.114C322.8 233.285 323.756 233.167 324.611 232.776C326.463 231.914 326.179 230.131 325.531 228.687C325.183 227.919 324.744 227.195 324.222 226.531C322.452 228.636 320.046 230.127 317.357 230.784Z" fill="#263238"/>
<path d="M321.874 233.079C322.8 233.25 323.756 233.132 324.611 232.741C326.462 231.879 326.179 230.096 325.531 228.652C323.467 229.258 321.674 231.04 321.874 233.079Z" fill="#FF99BA"/>
<path opacity="0.2" d="M346.937 194.757C349.367 197.798 354.674 205.092 356.479 205.185C354.615 193.429 351.584 183.164 346.843 177.699C344.882 175.442 342.519 173.559 339.872 172.141C340.556 175.241 344.354 191.634 346.937 194.757Z" fill="#263238"/>
<path d="M311.484 187.615C312.955 188.977 314.755 189.945 316.713 190.424C318.67 190.903 320.72 190.879 322.665 190.353C324.657 189.818 326.477 188.787 327.951 187.359C329.426 185.931 330.505 184.154 331.086 182.197C331.086 182.172 331.096 182.148 331.113 182.131C331.131 182.113 331.155 182.103 331.18 182.103C331.205 182.103 331.229 182.113 331.247 182.131C331.264 182.148 331.274 182.172 331.274 182.197C330.838 184.297 329.832 186.241 328.363 187.819C326.894 189.397 325.018 190.551 322.936 191.157C320.854 191.635 318.681 191.564 316.636 190.95C314.59 190.337 312.745 189.203 311.283 187.661C311.293 187.645 311.306 187.63 311.321 187.619C311.337 187.608 311.355 187.6 311.373 187.595C311.392 187.591 311.412 187.59 311.431 187.594C311.45 187.597 311.468 187.604 311.484 187.615Z" fill="#263238"/>
<path d="M320.377 157.588C327.206 156.982 333.881 160.012 336.889 164.323C338.568 166.774 339.358 169.714 339.129 172.666C339.129 172.782 338.882 172.782 338.882 172.666C338.734 170.093 337.89 167.608 336.438 165.468C334.985 163.328 332.978 161.613 330.626 160.501C328.038 159.204 325.18 158.518 322.278 158.498C319.375 158.477 316.508 159.123 313.902 160.385C311.349 161.555 309.303 163.588 308.134 166.117C308.028 166.374 307.498 166.269 307.58 166.012C308.913 161.596 314.197 158.148 320.377 157.588Z" fill="#263238"/>
<path d="M282.482 176.58C283.217 173.133 285.164 170.053 287.978 167.888C291.858 164.871 296.635 164.719 301.364 164.673C301.494 164.673 301.506 164.871 301.364 164.871C297.331 164.929 293.238 165.22 289.783 167.481C286.914 169.331 284.784 172.106 283.756 175.334C282.796 178.641 283.073 182.179 284.537 185.301C286.001 188.422 288.554 190.919 291.729 192.333C293.579 193.1 295.568 193.484 297.574 193.462C299.58 193.44 301.561 193.012 303.393 192.205C303.535 192.147 303.676 192.345 303.523 192.415C301.057 193.612 298.303 194.106 295.568 193.843C292.834 193.58 290.228 192.57 288.042 190.926C285.857 189.282 284.177 187.069 283.193 184.535C282.209 182.002 281.959 179.247 282.47 176.58H282.482Z" fill="#263238"/>
<path d="M352.115 187.312C352.115 187.312 357.151 174.495 350.935 168.203C347.397 164.614 337.313 166.304 337.313 166.304C335.728 164.477 333.793 162.979 331.619 161.895C329.445 160.811 327.075 160.163 324.646 159.989C315.919 159.045 306.389 165.127 306.389 165.127C306.389 165.127 297.767 161.492 290.703 166.642C280.866 173.819 284.074 189.537 295.291 193.44C303.181 196.155 312.522 188.465 312.522 188.465C313.513 188.465 324.186 193.254 330.685 183.595C330.685 183.595 337.443 188.255 342.479 183.863C343.533 185.344 345.023 186.47 346.747 187.087C348.471 187.704 350.345 187.782 352.115 187.312Z" fill="#263238"/>
<path d="M350.298 209.764C350.298 209.764 354.65 196.295 360.607 197.46C366.563 198.625 365.725 216.534 360.441 220.565C359.801 221.129 359.051 221.558 358.238 221.828C357.424 222.097 356.564 222.201 355.709 222.134C354.854 222.067 354.022 221.829 353.262 221.435C352.502 221.041 351.831 220.5 351.289 219.843L350.298 209.764Z" fill="#DD6A57"/>
<path d="M360.241 202.587C360.335 202.587 360.394 202.68 360.324 202.738C356.656 205.698 355.665 210.219 355.37 214.67C356.137 212.759 357.564 211.396 360.088 212.223C360.229 212.223 360.17 212.468 360.088 212.479C359.278 212.474 358.486 212.717 357.821 213.173C357.156 213.63 356.65 214.279 356.373 215.031C355.92 216.291 355.607 217.596 355.441 218.923C355.358 219.354 354.627 219.365 354.639 218.923V218.818C352.846 213.539 354.674 204.882 360.241 202.587Z" fill="#263238"/>
<path d="M356.88 199.557C356.88 199.557 356.031 180.693 349.32 170.988C341.842 160.175 321.202 152.939 306.436 165.162C306.436 165.162 327.878 159.651 341.925 172.677C348.376 178.666 350.617 200.781 350.617 200.781L356.88 199.557Z" fill="#292929"/>
<path d="M357.321 226.724C365.797 225.875 371.874 217.448 370.895 207.902C369.915 198.357 362.249 191.307 353.772 192.156C345.296 193.005 339.219 201.432 340.198 210.977C341.178 220.523 348.844 227.573 357.321 226.724Z" fill="#292929"/>
<path d="M347.135 210.246C347.886 217.301 353.733 222.509 360.202 221.877C366.67 221.245 371.306 215.022 370.565 207.977C369.825 200.931 363.967 195.723 357.488 196.345C351.01 196.968 346.384 203.2 347.135 210.246Z" fill="#455A64"/>
<path d="M391.035 260.892C413.892 285.08 468.275 375.847 450.643 392.555C433.011 409.264 335.178 386.729 307.698 373.831C299.513 369.986 330.578 319.628 340.191 318.451C348.187 317.472 389.089 335.928 390.269 333.598C391.613 330.976 382.319 314.116 372.483 279.01C361.137 238.59 380.94 250.207 391.035 260.892Z" fill="#DD6A57"/>
<path d="M299.572 302.22C279.71 299.494 274.179 301.801 258.658 290.697C248.468 283.414 239.386 286.712 245.189 298.293C254.707 317.227 279.593 326.071 289.11 326.688L299.572 302.22Z" fill="#DD6A57"/>
<path d="M352.351 321.119C352.351 321.119 330.024 308.873 309.149 303.886C294.701 300.449 262.444 296.406 231.578 327.854C224.254 335.322 219.171 351.075 235.612 343.187C247.288 337.571 252.973 330.534 260.38 328.494C260.38 328.494 256.334 349.304 264.177 356.249C271.044 362.33 278.339 367.921 286.008 372.98C287.265 371.803 288.447 370.55 289.547 369.229C289.547 369.229 297.508 375.054 312.474 373.633L352.351 321.119Z" fill="#DD6A57"/>
<path d="M294.831 302.779C287.931 306.333 273.424 314.116 263.8 324.556C253.115 336.15 235.683 361.34 244.422 369.054C250.838 374.705 258.351 365.663 258.351 365.663C258.351 365.663 253.374 377.571 260.297 381.428C266.607 384.923 271.985 377.606 271.985 377.606C271.985 377.606 270.228 385.343 276.962 387.568C285.065 390.248 287.436 373.586 298.015 369.287C300.386 368.331 294.831 302.779 294.831 302.779Z" fill="#DD6A57"/>
<path d="M278.083 333.668C272.186 338.072 261.252 351.471 258.245 365.349C258.174 365.663 258.375 365.885 258.504 365.617C263.736 354.255 270.35 343.565 278.201 333.784C278.248 333.703 278.153 333.621 278.083 333.668Z" fill="#263238"/>
<path d="M289.629 344.667C284.912 348.99 274.297 363.31 271.726 377.466C271.667 377.781 271.891 377.991 272.009 377.711C276.631 366.104 282.565 355.05 289.7 344.76C289.794 344.69 289.688 344.62 289.629 344.667Z" fill="#263238"/>
<path d="M260.368 328.366C253.893 330.254 249.682 333.388 244.21 337.14C241.531 339.031 238.747 340.774 235.871 342.36C233.229 343.77 229.349 345.855 226.53 343.688C224.974 342.465 224.997 340.193 225.351 338.468C225.726 336.477 226.53 334.59 227.71 332.934C227.769 332.852 227.627 332.747 227.568 332.829C226.452 334.272 225.551 335.865 224.891 337.559C224.187 339.128 223.982 340.871 224.301 342.558C225.257 346.054 229.467 346.543 232.439 345.576C234.22 344.935 235.931 344.119 237.546 343.141C239.115 342.243 240.636 341.288 242.134 340.286C245.212 338.224 248.173 335.998 251.227 333.912C254.193 331.941 257.286 330.162 260.486 328.588C260.516 328.572 260.538 328.546 260.548 328.514C260.558 328.482 260.554 328.448 260.539 328.419C260.523 328.389 260.496 328.367 260.464 328.358C260.432 328.348 260.398 328.351 260.368 328.366Z" fill="#263238"/>
<path d="M246.805 350.877C248.48 347.23 257.549 332.037 260.498 328.518C260.509 328.5 260.513 328.479 260.511 328.458C260.509 328.437 260.499 328.418 260.484 328.403C260.469 328.388 260.449 328.379 260.428 328.377C260.407 328.374 260.386 328.379 260.368 328.39C255.32 333.12 247.206 345.669 245.319 349.7C243.432 353.732 241.297 358.754 241.297 363.181C241.297 369.869 245.779 371.128 247.442 371.454C249.41 371.808 251.442 371.483 253.197 370.534C255.252 369.283 257.03 367.634 258.422 365.686C258.493 365.593 258.363 365.465 258.28 365.558C255.922 368.192 252.041 370.79 248.373 370.312C247.561 370.235 246.772 369.999 246.053 369.617C245.334 369.234 244.699 368.714 244.186 368.087C243.184 366.479 242.799 364.569 243.101 362.704C243.644 358.582 244.897 354.582 246.805 350.877Z" fill="#263238"/>
<path d="M271.726 377.466C270.782 378.259 268.848 381.032 265.77 381.626C264.677 381.92 263.528 381.946 262.422 381.702C261.316 381.459 260.288 380.953 259.424 380.228C257.839 378.593 256.963 376.41 256.983 374.146C257.239 371.31 257.712 368.498 258.398 365.733C258.398 365.605 258.269 365.547 258.233 365.675C257.102 368.572 256.415 371.619 256.193 374.717C256.15 375.943 256.358 377.165 256.804 378.31C257.25 379.455 257.924 380.499 258.788 381.381C259.717 382.244 260.869 382.837 262.118 383.094C263.367 383.351 264.663 383.263 265.864 382.838C267.043 382.395 270.877 379.983 271.973 377.606C272.009 377.548 271.773 377.431 271.726 377.466Z" fill="#263238"/>
<path d="M297.378 368.087C296.336 368.776 295.375 369.577 294.512 370.475C293.557 371.384 292.637 372.328 291.752 373.283C289.961 375.225 288.38 377.345 287.034 379.61C285.666 381.882 284.404 384.411 282.175 385.984C281.118 386.781 279.832 387.228 278.502 387.261C277.173 387.295 275.866 386.913 274.769 386.17C273.612 385.34 272.78 384.143 272.41 382.779C271.969 381.299 271.825 379.747 271.985 378.212C271.985 378.187 271.975 378.164 271.958 378.146C271.94 378.129 271.916 378.119 271.891 378.119C271.866 378.119 271.842 378.129 271.824 378.146C271.806 378.164 271.796 378.187 271.796 378.212C271.551 379.577 271.441 380.962 271.466 382.348C271.587 383.608 272.043 384.814 272.787 385.844C273.59 386.856 274.66 387.63 275.88 388.08C277.099 388.53 278.42 388.639 279.699 388.395C282.529 387.883 284.593 385.786 286.138 383.513C287.837 380.985 289.252 378.294 291.08 375.835C292.035 374.542 292.979 373.237 294.028 372.013C295.078 370.79 296.387 369.601 297.449 368.273C297.614 368.168 297.52 368.017 297.378 368.087Z" fill="#263238"/>
<path d="M305.292 373.796C301.596 373.394 297.946 372.645 294.394 371.559C294.276 371.559 294.123 371.839 294.229 371.897C295.946 372.675 297.746 373.261 299.595 373.645C301.458 374.04 303.37 374.158 305.268 373.994C305.363 373.982 305.41 373.808 305.292 373.796Z" fill="#263238"/>
<path d="M427.255 351.262C415.853 343.637 403.358 337.746 390.186 333.784C386.459 332.619 382.697 331.64 378.935 330.627C378.917 330.633 378.901 330.645 378.89 330.661C378.879 330.677 378.873 330.695 378.873 330.714C378.873 330.733 378.879 330.752 378.89 330.767C378.901 330.783 378.917 330.795 378.935 330.802C385.49 332.824 391.925 335.212 398.206 337.956C404.496 340.628 410.708 343.409 416.841 346.298C420.379 347.941 423.729 349.735 427.161 351.483C427.176 351.497 427.195 351.508 427.215 351.513C427.235 351.519 427.256 351.52 427.277 351.515C427.297 351.511 427.316 351.502 427.332 351.489C427.349 351.475 427.361 351.459 427.369 351.44C427.378 351.42 427.381 351.4 427.379 351.379C427.377 351.359 427.371 351.339 427.359 351.321C427.348 351.304 427.333 351.289 427.315 351.279C427.297 351.268 427.276 351.263 427.255 351.262Z" fill="#263238"/>
<path d="M437.87 317.938L382.379 316.12C382.379 316.12 372.047 289.065 368.119 264.993C364.192 240.921 384.148 248.273 404.976 274.046C425.805 299.82 437.87 317.938 437.87 317.938Z" fill="#038C7F"/>
<path d="M388.547 296.021C388.29 296.231 387.987 296.379 387.662 296.452C387.368 296.514 387.064 296.501 386.777 296.413C386.489 296.325 386.23 296.166 386.023 295.951C385.782 295.712 385.489 295.529 385.167 295.417C384.844 295.304 384.5 295.265 384.16 295.302C383.82 295.339 383.493 295.451 383.203 295.63C382.913 295.809 382.667 296.05 382.485 296.336C382.272 296.651 382.036 296.942 381.848 297.28C382.19 297.093 382.485 296.86 382.815 296.651C383.066 296.431 383.365 296.272 383.688 296.185C383.977 296.113 384.281 296.115 384.569 296.19C384.858 296.266 385.123 296.412 385.339 296.616C385.662 296.933 386.071 297.152 386.516 297.245C386.962 297.338 387.426 297.302 387.851 297.14C388.249 296.971 388.589 296.692 388.83 296.336C389.042 296.021 389.278 295.73 389.467 295.392C389.16 295.579 388.865 295.812 388.547 296.021ZM406.026 285.943C405.943 285.57 405.896 285.197 405.79 284.778C405.684 285.15 405.637 285.523 405.566 285.943C405.543 286.27 405.447 286.589 405.283 286.875C405.131 287.129 404.916 287.341 404.658 287.49C404.4 287.639 404.107 287.72 403.809 287.725C403.35 287.726 402.902 287.859 402.519 288.107C402.135 288.355 401.834 288.709 401.65 289.124C401.49 289.519 401.449 289.952 401.532 290.37C401.603 290.743 401.65 291.116 401.756 291.535C401.862 291.163 401.91 290.79 401.992 290.37C402.017 290.043 402.122 289.727 402.299 289.45C402.464 289.2 402.689 288.996 402.955 288.855C403.221 288.715 403.519 288.643 403.82 288.646C404.156 288.642 404.487 288.566 404.79 288.421C405.092 288.276 405.358 288.067 405.569 287.808C405.78 287.55 405.93 287.249 406.009 286.926C406.088 286.604 406.094 286.268 406.026 285.943ZM386.53 255.8C386.518 255.932 386.518 256.064 386.53 256.196C386.613 256.557 386.648 256.93 386.754 257.303C386.86 256.93 386.907 256.557 386.99 256.196C386.884 256.033 386.719 255.916 386.554 255.8H386.53ZM426.076 301.393C425.661 301.383 425.266 301.211 424.979 300.915C424.654 300.597 424.242 300.379 423.794 300.288C423.346 300.197 422.881 300.237 422.455 300.402C422.058 300.567 421.718 300.842 421.476 301.195C421.264 301.521 421.028 301.812 420.839 302.15C421.181 301.964 421.476 301.731 421.806 301.521C422.053 301.303 422.354 301.154 422.679 301.09C422.974 301.026 423.28 301.037 423.569 301.122C423.858 301.208 424.12 301.365 424.33 301.579C424.629 301.858 424.996 302.056 425.395 302.152C425.794 302.248 426.212 302.239 426.607 302.127L426.076 301.393ZM387.674 274.07C387.341 274.04 387.018 273.936 386.731 273.767C386.479 273.603 386.274 273.38 386.134 273.117C385.993 272.854 385.923 272.561 385.929 272.264C385.915 271.809 385.767 271.368 385.503 270.995C385.239 270.623 384.87 270.335 384.443 270.166C384.037 270.026 383.601 269.998 383.181 270.085C382.803 270.166 382.426 270.213 382.001 270.318C382.379 270.411 382.756 270.458 383.181 270.539C383.516 270.562 383.842 270.657 384.136 270.819C384.392 270.97 384.605 271.183 384.756 271.438C384.906 271.692 384.989 271.981 384.997 272.275C384.998 272.728 385.132 273.171 385.383 273.55C385.634 273.928 385.992 274.226 386.412 274.408C386.813 274.566 387.251 274.606 387.674 274.524C388.04 274.443 388.417 274.408 388.795 274.303C388.453 274.198 388.075 274.151 387.709 274.07H387.674ZM413.197 312.415C412.865 312.388 412.545 312.28 412.265 312.101C412.01 311.94 411.801 311.718 411.658 311.455C411.516 311.191 411.444 310.896 411.451 310.598C411.45 310.265 411.374 309.937 411.228 309.638C411.082 309.339 410.87 309.075 410.608 308.868C410.345 308.66 410.039 308.513 409.711 308.437C409.384 308.361 409.043 308.359 408.715 308.43C408.337 308.512 407.96 308.547 407.535 308.652C407.913 308.757 408.29 308.803 408.715 308.885C409.048 308.901 409.371 308.997 409.658 309.164C409.918 309.312 410.133 309.524 410.284 309.78C410.435 310.035 410.516 310.325 410.519 310.621C410.522 311.072 410.658 311.512 410.909 311.888C411.16 312.265 411.516 312.561 411.935 312.741C412.333 312.909 412.773 312.953 413.197 312.87C413.574 312.788 413.951 312.741 414.376 312.637C413.987 312.532 413.609 312.485 413.232 312.415H413.197Z" fill="white"/>
<path d="M384.655 315.934C384.348 315.934 382.402 315.596 382.39 315.596C382.249 314.885 379.088 303.572 378.251 301.113C376.564 296.091 374.571 291.163 372.648 286.234C372.631 286.209 372.607 286.189 372.577 286.179C372.548 286.169 372.517 286.169 372.488 286.178C372.458 286.187 372.433 286.206 372.415 286.23C372.397 286.255 372.388 286.285 372.389 286.316C373.639 290.557 374.819 294.821 376.104 299.062C375.715 298.457 375.338 297.897 374.925 297.245C374.182 295.986 373.521 294.681 372.825 293.4C372.81 293.377 372.787 293.36 372.76 293.353C372.733 293.345 372.705 293.347 372.68 293.358C372.654 293.369 372.634 293.389 372.622 293.414C372.609 293.438 372.606 293.466 372.613 293.493C373.207 295.27 374.027 296.966 375.054 298.538C375.497 299.212 375.981 299.858 376.505 300.472L376.824 301.533C377.614 304.003 381.671 316.249 381.883 316.26H384.561C384.796 316.307 384.796 315.934 384.655 315.934Z" fill="#263238"/>
<path d="M428.871 307.323C416.912 306.438 404.858 306.38 392.852 306.566C389.447 306.613 386.047 306.741 382.65 306.951C382.634 306.957 382.621 306.967 382.612 306.981C382.603 306.994 382.598 307.01 382.598 307.026C382.598 307.043 382.603 307.059 382.612 307.072C382.621 307.086 382.634 307.096 382.65 307.102C388.641 307.417 394.633 307.487 400.636 307.603C406.639 307.72 412.666 307.766 418.681 307.708C422.078 307.708 425.474 307.65 428.871 307.545C428.895 307.537 428.915 307.522 428.93 307.502C428.944 307.483 428.952 307.459 428.952 307.434C428.952 307.41 428.944 307.386 428.93 307.366C428.915 307.346 428.895 307.331 428.871 307.323Z" fill="#263238"/>
<path d="M236.756 412.619H245.224V407.155H236.756V412.619Z" fill="#455A64"/>
<path d="M225.776 412.258H234.244V406.793H225.776V412.258Z" fill="#455A64"/>
<path d="M214.783 411.897H223.251V406.432H214.783V411.897Z" fill="#455A64"/>
<path d="M203.803 411.536H212.271V406.071H203.803V411.536Z" fill="#455A64"/>
<path d="M192.811 411.174H201.279V405.71H192.811V411.174Z" fill="#455A64"/>
<path d="M181.831 410.813H190.299V405.349H181.831V410.813Z" fill="#455A64"/>
<path d="M170.838 410.452H179.307V404.987H170.838V410.452Z" fill="#455A64"/>
<path d="M159.858 410.091H168.326V404.626H159.858V410.091Z" fill="#455A64"/>
<path d="M148.866 409.73H157.334V404.265H148.866V409.73Z" fill="#455A64"/>
<path d="M146.79 415.765H247.3V409.124L146.79 406.351V415.765Z" fill="#37474F"/>
<path d="M48.6979 389.549H214.618L188.235 267.51H22.3026L48.6979 389.549Z" fill="#455A64"/>
<path d="M42.5533 389.549H208.485L182.09 267.51H16.1698L42.5533 389.549Z" fill="#37474F"/>
<path d="M97.9859 321.457C98.4924 324.236 99.9495 326.76 102.114 328.605C104.278 330.45 107.017 331.505 109.874 331.594C111.164 331.634 112.447 331.385 113.625 330.866C114.804 330.346 115.848 329.569 116.679 328.593C117.51 327.618 118.106 326.469 118.423 325.233C118.74 323.997 118.769 322.706 118.508 321.457C117.995 318.68 116.536 316.161 114.373 314.317C112.211 312.473 109.474 311.415 106.619 311.32C105.329 311.28 104.047 311.529 102.868 312.048C101.69 312.568 100.646 313.345 99.8147 314.32C98.9837 315.296 98.3875 316.445 98.0707 317.681C97.754 318.917 97.725 320.208 97.9859 321.457Z" fill="#263238"/>
<path d="M89.4822 421.416H171.086V415.159L89.4822 412.549V421.416Z" fill="#455A64"/>
<path d="M67.2975 421.405H111.113L137.496 353.033H93.681L67.2975 421.405Z" fill="#455A64"/>
<path d="M60.0792 421.405H103.895L130.29 353.033H86.4746L60.0792 421.405Z" fill="#263238"/>
<path d="M250.402 423.082H334.541C341.724 423.082 331.333 402.89 305.127 395.119C278.92 387.347 242.087 415.509 250.402 423.082Z" fill="#37474F"/>
<path d="M283.425 423.082C282.894 420.88 282.212 418.716 281.385 416.604C280.568 414.519 279.569 412.507 278.401 410.592C277.254 408.67 275.885 406.887 274.32 405.279L273.141 404.114L271.832 403.03C271.006 402.238 269.98 401.725 269.072 401.003C271.238 401.869 273.234 403.104 274.969 404.65C276.725 406.2 278.228 408.007 279.427 410.009C280.625 412 281.579 414.124 282.27 416.336C282.95 418.526 283.339 420.794 283.425 423.082Z" fill="#263238"/>
<path d="M273.448 403.869C272.268 404.475 271.148 405.034 270.015 405.698C268.883 406.362 267.739 406.945 266.631 407.597C264.413 408.914 262.208 410.242 260.12 411.734C258 413.17 256.025 414.804 254.223 416.616C253.329 417.518 252.538 418.514 251.864 419.587C251.159 420.657 250.648 421.839 250.355 423.082C250.43 421.774 250.771 420.494 251.357 419.319C251.956 418.145 252.684 417.039 253.527 416.022C255.254 414.028 257.236 412.265 259.424 410.778C263.734 407.822 268.453 405.495 273.436 403.869H273.448Z" fill="#263238"/>
<path d="M408.373 374.716L403.372 436.75H368.839L363.838 374.716H408.373Z" fill="#038C7F"/>
<path opacity="0.1" d="M408.373 374.716L403.372 436.75H368.839L363.838 374.716H408.373Z" fill="black"/>
<path d="M411.345 369.124H360.571V378.165H411.345V369.124Z" fill="#455A64"/>
<path d="M407.866 369.124H364.05L366.61 358.963H405.306L407.866 369.124Z" fill="#37474F"/>
<path d="M398.1 406.281C398.1 414.332 392.734 420.857 386.105 420.857C379.477 420.857 374.111 414.332 374.111 406.281C374.111 398.229 379.489 391.693 386.105 391.693C392.722 391.693 398.1 398.229 398.1 406.281Z" fill="white"/>
<path d="M261.755 92.0513C261.755 93.9233 261.275 95.3633 260.315 96.3713C259.355 97.3553 257.999 97.8473 256.247 97.8473C254.495 97.8473 253.139 97.3553 252.179 96.3713C251.219 95.3633 250.739 93.9233 250.739 92.0513V90.5753H253.691V92.1953C253.691 93.1553 253.907 93.8993 254.339 94.4273C254.795 94.9313 255.431 95.1833 256.247 95.1833C257.087 95.1833 257.723 94.9313 258.155 94.4273C258.611 93.8993 258.839 93.1553 258.839 92.1953V74.7713H261.755V92.0513Z" fill="#EBEBEB"/>
</svg>
