<svg width="479" height="145" viewBox="0 0 479 145" fill="none" xmlns="http://www.w3.org/2000/svg">
<g style="mix-blend-mode:multiply">
<path d="M133.687 144.4C120.487 144.4 108.353 141.333 97.2867 135.2C86.3534 129.067 77.6201 120.533 71.0867 109.6C64.6867 98.5333 61.4867 86.1333 61.4867 72.4C61.4867 58.6667 64.6867 46.3333 71.0867 35.4C77.6201 24.4667 86.3534 15.9333 97.2867 9.8C108.353 3.66666 120.487 0.599998 133.687 0.599998C146.887 0.599998 158.953 3.66666 169.887 9.8C180.953 15.9333 189.62 24.4667 195.887 35.4C202.287 46.3333 205.487 58.6667 205.487 72.4C205.487 86.1333 202.287 98.5333 195.887 109.6C189.487 120.533 180.82 129.067 169.887 135.2C158.953 141.333 146.887 144.4 133.687 144.4ZM133.687 113.2C144.887 113.2 153.82 109.467 160.487 102C167.287 94.5333 170.687 84.6667 170.687 72.4C170.687 60 167.287 50.1333 160.487 42.8C153.82 35.3333 144.887 31.6 133.687 31.6C122.353 31.6 113.287 35.2667 106.487 42.6C99.8201 49.9333 96.4867 59.8667 96.4867 72.4C96.4867 84.8 99.8201 94.7333 106.487 102.2C113.287 109.533 122.353 113.2 133.687 113.2Z" fill="#04BFAD"/>
</g>
<g style="mix-blend-mode:multiply">
<path d="M342.603 1.6V142H308.403V57.8L277.003 142H249.403L217.803 57.6V142H183.603V1.6H224.003L263.403 98.8L302.403 1.6H342.603Z" fill="#04BFAD"/>
</g>
<path d="M52.4706 118.159C53.667 119.85 54.4866 122.013 54.8255 124.374C55.1644 126.735 55.0074 129.187 54.3742 131.419C53.7411 133.652 52.6604 135.564 51.2692 136.913C49.878 138.263 48.2389 138.989 46.5599 139C44.262 139.028 42.0442 137.789 40.364 135.538L2.56647 80.4965C2.15168 80.4965 2.02208 79.901 1.89246 79.3428C1.76476 79.1855 1.6257 79.0482 1.47766 78.9334C1.29165 78.4582 1.16035 77.9429 1.08881 77.4076C0.982733 77.3314 0.890214 77.2213 0.81832 77.0858C0.746427 76.9504 0.697056 76.7931 0.674015 76.626C0.544394 76.2539 0.544379 75.6584 0.414757 75.4724C0.285136 75.2863 0.155539 74.6908 0.155539 74.5047V73.165C0.155539 72.7556 0 72.5695 0 72.0113C0 71.4531 0.155539 71.2298 0.155539 71.0437V69.6667C0.155539 69.2946 0.414757 69.1085 0.414757 68.9224C0.414757 68.7363 0.544394 67.9548 0.674015 67.3593C0.803637 66.7639 0.829554 67.3593 0.829554 66.9872C1.01283 66.3803 1.22955 65.7954 1.47766 65.238C1.47748 65.1859 1.48496 65.1342 1.49957 65.0865C1.51419 65.0387 1.53562 64.9959 1.56251 64.9608C1.5894 64.9257 1.62112 64.8991 1.65563 64.8828C1.69014 64.8664 1.72667 64.8607 1.76283 64.8659C1.94162 64.3134 2.21884 63.8383 2.56647 63.4889L40.364 8.48412C41.9943 6.24789 44.1624 5 46.4173 5C48.6722 5 50.8403 6.24789 52.4706 8.48412C53.2662 9.62474 53.8974 10.9793 54.328 12.4704C54.7586 13.9615 54.9803 15.5598 54.9803 17.174C54.9803 18.7881 54.7586 20.3865 54.328 21.8776C53.8974 23.3686 53.2662 24.7232 52.4706 25.8638L20.5838 72.0113L52.4706 118.159Z" fill="#039987"/>
<path d="M351.658 121.294L388.248 16.064C389.122 13.6223 390.761 11.6985 392.806 10.714C394.851 9.72941 397.136 9.76437 399.159 10.8112C401.118 11.8493 402.657 13.7825 403.44 16.1881C404.222 18.5936 404.184 21.2756 403.334 23.6474L366.743 129.051C366.088 130.832 365.017 132.343 363.662 133.399C362.307 134.456 360.727 135.012 359.114 135C358.122 135.011 357.14 134.762 356.235 134.269C355.213 133.807 354.279 133.098 353.49 132.187C352.701 131.275 352.074 130.18 351.646 128.966C351.218 127.753 350.998 126.448 351 125.129C351.002 123.81 351.226 122.505 351.658 121.294Z" fill="#039987"/>
<path d="M477.427 79.7078C477.427 79.7078 477.427 79.9431 477.276 79.9431C476.936 80.4427 476.572 80.9142 476.187 81.3548L432.081 139.353C430.174 141.708 427.637 143.015 425.002 143C422.376 143.022 419.847 141.713 417.954 139.353C417.018 138.156 416.275 136.731 415.768 135.159C415.261 133.587 415 131.9 415 130.196C415 128.492 415.261 126.806 415.768 125.234C416.275 123.662 417.018 122.236 417.954 121.04L455.132 72.414L417.954 23.9843C417.018 22.7878 416.275 21.3621 415.768 19.7903C415.261 18.2184 415 16.5316 415 14.8278C415 13.124 415.261 11.4372 415.768 9.86528C416.275 8.29341 417.018 6.8678 417.954 5.67124C419.856 3.31492 422.386 2 425.017 2C427.649 2 430.179 3.31492 432.081 5.67124L476.187 63.63C476.58 64.0735 476.944 64.5589 477.276 65.0809C477.427 65.0809 477.427 65.4731 477.427 65.4731C477.715 66.0682 477.978 66.6835 478.214 67.3161C478.214 67.3161 478.365 67.3161 478.365 67.7083C478.466 68.3463 478.629 68.9654 478.849 69.5513C478.849 69.7474 478.849 69.7474 478.849 70.1395V71.5905C478.849 71.5905 479 72.3748 479 72.6101C479 72.8453 478.849 73.3944 478.849 73.6296V74.9629C478.849 74.9629 478.849 74.9629 478.849 75.355C478.656 75.9547 478.494 76.5705 478.365 77.1981C478.365 77.1981 478.214 77.1981 478.214 77.8256C478.214 78.453 477.79 78.8843 477.427 79.7078Z" fill="#039987"/>
</svg>
